<svg viewBox="0 0 2000 1400" xmlns="http://www.w3.org/2000/svg"><path d="M0 0h2000v1400H0z"/><rect x="1654" y="362" width="11" height="27" fill="#553c01" rx="0" transform="matrix(.1916 1.0281 -.98606 -.0719 1725.593 -889.882)"/><rect x="285" y="489" width="13" height="18" fill="#410b1b" rx="0" transform="matrix(.99556 -.03495 .10543 1.00076 8.064 -5.47)"/><rect x="991" y="1082" width="9" height="12" fill="#410b1b" rx="0" transform="matrix(-.9997 -.01748 -.05238 -1.00122 2067.584 2246.897)"/><rect x="1768" y="622" width="8" height="22" fill="#1b1c1e" rx="0" transform="matrix(-1.00217 -.15936 -.05246 -1.00617 3598.12 1896.74)"/><rect x="1587" y="530" width="9" height="17" fill="#410b1b" rx="0" transform="matrix(-.9005 .473 -.42057 -.88958 3275.124 69.351)"/><rect x="800" y="1230" width="12" height="24" fill="#1b1c1e" rx="0" transform="matrix(-.98862 -.01772 -.20964 -1.01527 1935.74 2659.371)"/><rect x="1705" y="33" width="12" height="33" fill="#410b1b" rx="0" transform="matrix(-.89082 .15885 -.6709 -1.00293 3389.334 129.052)"/><rect x="226" y="917" width="13" height="26" fill="#410b1b" rx="0" transform="matrix(.57276 .98274 -.85333 .2818 995.87 488.863)"/><rect x="1136" y="1002" width="7" height="11" fill="#1b1c1e" rx="0" transform="matrix(.33465 1.00107 -.9814 .05246 1978.006 -106.393)"/><rect x="23" y="683" width="8" height="22" fill="#1b1c1e" rx="0" transform="matrix(-.62876 .46249 -.9282 -.90768 928.92 1316.693)"/><rect x="1683" y="794" width="12" height="23" fill="#553c01" rx="0" transform="matrix(-.64264 .57366 -.8254 -.81928 3691.42 467.028)"/><rect x="1828" y="216" width="8" height="15" fill="#553c01" rx="0" transform="matrix(-.63405 .49363 -.83333 -.92839 3280.356 121.914)"/><rect x="1804" y="198" width="8" height="13" fill="#553c01" rx="0" transform="matrix(.7002 .79973 -.72278 .60264 709.184 -1459.408)"/><rect x="400" y="854" width="8" height="23" fill="#410b1b" rx="0" transform="matrix(.84043 .93064 -.70034 .41435 941.304 209.43)"/><rect x="514" y="562" width="11" height="11" fill="#410b1b" rx="0" transform="matrix(1.09022 .43556 .04208 .93405 103.038 -59.32)"/><rect x="103" y="1260" width="7" height="8" fill="#410b1b" rx="0" transform="matrix(.0183 .9783 -1.0183 .20794 1169.123 895.112)"/><rect x="769" y="376" width="8" height="8" fill="#410b1b" rx="0" transform="matrix(.99243 .34459 -.17533 .94675 97.368 -151.22)"/><rect x="897" y="566" width="7" height="10" fill="#410b1b" rx="0" transform="matrix(.99985 .36173 -.01745 .99384 10.102 -12.15)"/><rect x="1035" y="115" width="7" height="8" fill="#553c01" rx="0" transform="matrix(-.45514 .9604 -.89335 -.31205 1617.936 -987.196)"/><rect x="1044" y="161" width="12" height="18" fill="#410b1b" rx="0" transform="matrix(-.33483 .77157 -1.005 -.67072 1648.85 -302.943)"/><rect x="1062" y="39" width="9" height="11" fill="#410b1b" rx="0" transform="matrix(.42738 .97564 -.91841 .24325 665.271 -894.752)"/><rect x="1915" y="852" width="7" height="20" fill="#410b1b" rx="0" transform="matrix(.96593 .19127 -.25882 .98402 288.473 -487.344)"/><rect x="926" y="922" width="7" height="20" fill="#410b1b" rx="0" transform="matrix(-.18962 .8708 -1.0389 -.50275 2330.737 688.857)"/><rect x="1947" y="959" width="10" height="16" fill="#410b1b" rx="0" transform="matrix(-.79746 .73147 -.62348 -.6821 3980.428 164.7)"/><rect x="1878" y="636" width="12" height="28" fill="#553c01" rx="0" transform="matrix(1.0492 .61905 -.27247 .79235 359.967 -833.307)"/><rect x="135" y="1004" width="12" height="13" fill="#410b1b" rx="0" transform="matrix(1.00276 .01746 .15838 1 0 0)"/><rect x="1636" y="625" width="9" height="21" fill="#410b1b" rx="0" transform="matrix(1.00722 -.05246 -.15814 1.00107 15.462 -29.327)"/><rect x="148" y="1009" width="8" height="15" fill="#553c01" rx="0" transform="matrix(-.99715 .19107 -.10377 -.98297 265.073 1994.617)"/><rect x="213" y="382" width="10" height="29" fill="#553c01" rx="0" transform="matrix(.0525 .989 -1.00092 .19224 596.967 77.907)"/><rect x="738" y="152" width="12" height="23" fill="#1b1c1e" rx="0" transform="matrix(.915 .64289 -.46503 .76616 176.801 -453.06)"/><rect x="1309" y="63" width="8" height="12" fill="#410b1b" rx="0" transform="matrix(.71885 .90645 -.768 .42268 438.008 -1173.247)"/><rect x="1923" y="945" width="12" height="35" fill="#553c01" rx="0" transform="matrix(.8526 .31287 -.57222 .96291 754.448 -873.35)"/><rect x="1391" y="199" width="12" height="25" fill="#410b1b" rx="0" transform="matrix(-.73896 .60773 -.66484 -.80648 2548.562 -270.591)"/><rect x="1139" y="638" width="12" height="12" fill="#410b1b" rx="0" transform="matrix(-.62628 .63086 -.81175 -.77904 2557.272 343.307)"/><rect x="451" y="1363" width="8" height="15" fill="#1b1c1e" rx="0" transform="matrix(.40676 .92065 -.91354 .3908 1569.51 408.086)"/><rect x="1897" y="1174" width="11" height="25" fill="#410b1b" rx="0" transform="matrix(-.07593 .93486 -1.04053 -.35886 3602.233 -66.581)"/><rect x="1764" y="278" width="8" height="17" fill="#410b1b" rx="0" transform="matrix(.12242 1.00229 -.99985 -.0175 1866.693 -1356.904)"/><rect x="454" y="233" width="10" height="13" fill="#410b1b" rx="0" transform="matrix(-.99716 .36284 -.15837 -.94522 945.887 226.64)"/><rect x="1774" y="267" width="8" height="22" fill="#410b1b" rx="0" transform="matrix(.58429 .81697 -.79953 .59356 965.355 -1589.46)"/><rect x="306" y="428" width="7" height="12" fill="#553c01" rx="0" transform="matrix(.34302 1.002 -1.03407 -.10531 805.483 207.592)"/><rect x="1509" y="1126" width="8" height="11" fill="#1b1c1e" rx="0" transform="matrix(.90563 .19319 -.51727 .99386 570.81 -524.985)"/><rect x="357" y="795" width="11" height="28" fill="#410b1b" rx="0" transform="matrix(-.40674 .80456 -.91355 -.65152 1249 1141.558)"/><rect x="1472" y="10" width="11" height="32" fill="#410b1b" rx="0" transform="matrix(-.92883 .39288 -.3571 -.92558 2850.092 -685.712)"/><rect x="508" y="31" width="13" height="27" fill="#410b1b" rx="0" transform="matrix(.35324 1.01247 -.98769 0 401.201 -394.925)"/><rect x="1486" y="283" width="8" height="17" fill="#410b1b" rx="0" transform="matrix(-.6292 .75517 -.77726 -.65646 2670.812 -694.377)"/><rect x="1791" y="584" width="13" height="13" fill="#410b1b" rx="0" transform="matrix(.86858 .42288 -.50208 .90686 452.49 -642.35)"/><rect x="770" y="995" width="12" height="18" fill="#553c01" rx="0" transform="matrix(-.90342 .44005 -.42021 -.90223 1786.283 1636.252)"/><rect x="644" y="637" width="11" height="28" fill="#1b1c1e" rx="0" transform="matrix(1.0203 .34333 -.10942 .94328 170.152 -129.243)"/><rect x="199" y="262" width="9" height="16" fill="#410b1b" rx="0" transform="matrix(-.35914 .95645 -.93573 -.29242 515.27 150.763)"/><rect x="945" y="234" width="12" height="35" fill="#410b1b" rx="0" transform="matrix(1.03655 .72265 -.3104 .74833 154.728 -351.253)"/><rect x="1113" y="663" width="13" height="14" fill="#553c01" rx="0" transform="matrix(-.43086 .77157 -.92152 -.67072 2282.753 493.564)"/><rect x="632" y="1300" width="8" height="20" fill="#410b1b" rx="0" transform="matrix(.98346 .10493 -.17338 .99832 259.547 -120.177)"/><rect x="916" y="472" width="11" height="21" fill="#553c01" rx="0" transform="matrix(.99517 -.01746 .25062 1.00046 4.191 -16.308)"/><rect x="730" y="275" width="8" height="19" fill="#410b1b" rx="0" transform="matrix(-.92815 .05535 -.35617 -1.05617 1507.215 797.09)"/><rect x="1490" y="233" width="8" height="14" fill="#410b1b" rx="0" transform="matrix(-.4532 .78143 -.91271 -.63279 2417.1 -932.608)"/><rect x="688" y="599" width="8" height="23" fill="#553c01" rx="0" transform="matrix(.84928 .29688 -.59046 .97106 396.123 -309.791)"/><rect x="1924" y="214" width="7" height="10" fill="#410b1b" rx="0" transform="matrix(.99373 -.07063 -.05189 1.01 20.438 -171.344)"/><rect x="1800" y="195" width="8" height="11" fill="#1b1c1e" rx="0" transform="matrix(.32492 1 -1.02843 -.08749 1540.473 -1428.129)"/><rect x="384" y="1106" width="8" height="20" fill="#1b1c1e" rx="0" transform="matrix(.88301 .50491 -.45112 .87454 446.433 -1.36)"/><rect x="1190" y="680" width="12" height="15" fill="#553c01" rx="0" transform="matrix(.27656 1.01624 -.96469 .07106 1544.517 -344.294)"/><rect x="523" y="1010" width="11" height="25" fill="#553c01" rx="0" transform="matrix(.965 .10493 -.34893 .99832 220.647 -99.975)"/><rect x="1533" y="632" width="9" height="15" fill="#1b1c1e" rx="0" transform="matrix(.89931 .7627 -.5014 .68673 579.97 -617.345)"/><rect x="1251" y="1206" width="13" height="22" fill="#410b1b" rx="0" transform="matrix(.03503 .99255 -1.0032 .12187 2327.877 -179.442)"/><rect x="1284" y="405" width="11" height="28" fill="#410b1b" rx="0" transform="matrix(-.05578 1.00751 -.99255 0 1675.509 -721.853)"/><rect x="1597" y="600" width="7" height="13" fill="#410b1b" rx="0" transform="matrix(.99602 .47735 -.14008 .93686 110.992 -205.676)"/><rect x="93" y="878" width="11" height="22" fill="#410b1b" rx="0" transform="matrix(.30573 1 -1.00534 -.01746 1234.45 807.737)"/><rect x="1245" y="441" width="11" height="24" fill="#410b1b" rx="0" transform="matrix(-.97003 -.05535 -.44292 -1.05617 2804.108 1431.244)"/><rect x="1243" y="1159" width="8" height="18" fill="#410b1b" rx="0" transform="matrix(.14057 .9977 -1.02206 -.14022 2474.716 240.75)"/><rect x="445" y="343" width="7" height="16" fill="#410b1b" rx="0" transform="matrix(-.97499 .34223 -.24327 -.94027 947.72 511.882)"/><rect x="1716" y="82" width="10" height="23" fill="#553c01" rx="0" transform="matrix(-.69385 .49564 -.76585 -.89416 3043.123 -310.084)"/><rect x="1239" y="777" width="9" height="18" fill="#410b1b" rx="0" transform="matrix(-.84907 .57366 -.53058 -.81928 2689.668 694.895)"/><rect x="16" y="1077" width="12" height="24" fill="#410b1b" rx="0" transform="matrix(.21168 1.00986 -1.01248 -.10614 1273.53 1186.25)"/><rect x="1112" y="1213" width="7" height="16" fill="#1b1c1e" rx="0" transform="matrix(-.35361 .9233 -.89506 -.49092 2327.395 1131.528)"/><rect x="1826" y="1055" width="12" height="33" fill="#553c01" rx="0" transform="matrix(-.97241 .57921 -.33773 -.8272 3860.933 639.258)"/><rect x="676" y="1048" width="12" height="22" fill="#553c01" rx="0" transform="matrix(-.79593 .63172 -.60008 -.78011 1912.679 1394.638)"/><rect x="318" y="375" width="12" height="15" fill="#410b1b" rx="0" transform="matrix(-.62942 .73236 -.77851 -.68293 870.592 389.458)"/><rect x="484" y="206" width="13" height="23" fill="#410b1b" rx="0" transform="matrix(-.85778 .16195 -.75882 -1.02253 1196.431 491.892)"/><rect x="1693" y="894" width="13" height="23" fill="#553c01" rx="0" transform="matrix(-1.10604 -.32682 -.34428 -1.00586 4375.307 2956.924)"/><rect x="546" y="860" width="12" height="13" fill="#553c01" rx="0" transform="matrix(.88092 .61464 -.41448 .84598 316.074 -37.063)"/><rect x="1659" y="49" width="7" height="11" fill="#1b1c1e" rx="0" transform="matrix(.35996 .96651 -.9382 .25898 1123.074 -1508.389)"/><rect x="173" y="1256" width="7" height="16" fill="#410b1b" rx="0" transform="matrix(-.60597 .60092 -.83008 -.8271 1469.464 2240.897)"/><rect x="1363" y="50" width="11" height="21" fill="#410b1b" rx="0" transform="matrix(-.58074 .7917 -.79285 -.6411 2165.317 -718.134)"/><rect x="420" y="157" width="9" height="14" fill="#553c01" rx="0" transform="matrix(.98472 .03533 -.10228 1.01185 31.727 -84.177)"/><rect x="745" y="1297" width="8" height="10" fill="#410b1b" rx="0" transform="matrix(-.7478 .3962 -.67318 -.9806 2212.8 2539.906)"/><rect x="246" y="306" width="13" height="25" fill="#553c01" rx="0" transform="matrix(-.36523 1.0043 -.95734 -.10556 614.883 63.048)"/><rect x="610" y="1195" width="13" height="28" fill="#410b1b" rx="0" transform="matrix(.30859 .95338 -.94863 .30977 1654.681 203.618)"/><rect x="791" y="842" width="8" height="11" fill="#553c01" rx="0" transform="matrix(.84164 .61526 -.50843 .81648 449.956 -164.614)"/><rect x="1101" y="1109" width="11" height="16" fill="#410b1b" rx="0" transform="matrix(-.52992 .8388 -.84805 -.54472 2640.125 816.638)"/><rect x="1608" y="1173" width="9" height="22" fill="#1b1c1e" rx="0" transform="matrix(-.47632 .85638 -.87006 -.53513 3596.822 210.052)"/><rect x="1310" y="1029" width="12" height="21" fill="#410b1b" rx="0" transform="matrix(-.13336 .98169 -.98787 -.22664 2704.99 -178.392)"/><rect x="1938" y="733" width="10" height="17" fill="#410b1b" rx="0" transform="matrix(.8429 .98938 -.73686 .32147 1224.017 -862.096)"/><rect x="563" y="1198" width="10" height="22" fill="#553c01" rx="0" transform="matrix(.5992 1.04314 -.91674 .07294 1655.206 701.96)"/><rect x="1380" y="192" width="11" height="21" fill="#410b1b" rx="0" transform="matrix(.32368 1.05082 -.94033 .0367 1116.07 -810.668)"/><rect x="843" y="161" width="13" height="31" fill="#410b1b" rx="0" transform="matrix(-.97935 .05262 -.31547 -1.00413 1779.238 398.31)"/><rect x="1095" y="1184" width="10" height="22" fill="#410b1b" rx="0" transform="matrix(-.191 .9939 -.98268 -.12204 2464.544 189.886)"/><rect x="1833" y="716" width="8" height="17" fill="#410b1b" rx="0" transform="matrix(.65733 1.03134 -.9121 .09023 1662.293 -743.215)"/><rect x="1903" y="832" width="8" height="18" fill="#410b1b" rx="0" transform="matrix(.94354 .67945 -.42387 .7546 629.595 -753.088)"/><rect x="1769" y="1190" width="13" height="25" fill="#410b1b" rx="0" transform="matrix(-.81423 .44658 -.56984 -.91562 3852.356 1855.755)"/><rect x="1621" y="624" width="8" height="15" fill="#553c01" rx="0" transform="matrix(-.8074 .41301 -.6078 -.92764 3368.956 832.692)"/><rect x="237" y="646" width="8" height="12" fill="#410b1b" rx="0" transform="matrix(-.61609 .43017 -.94089 -.96618 1199.874 1261.264)"/><rect x="1239" y="624" width="13" height="31" fill="#553c01" rx="0" transform="matrix(.8616 .6365 -.42773 .84465 295.755 -264.547)"/><rect x="376" y="544" width="11" height="27" fill="#410b1b" rx="0" transform="matrix(-.1351 1 -.98101 -.14054 1050.77 200.735)"/><rect x="1686" y="1354" width="9" height="9" fill="#553c01" rx="0" transform="matrix(-.64934 .73685 -.75162 -.68712 3991.57 838.747)"/><rect x="660" y="1030" width="7" height="7" fill="#410b1b" rx="0" transform="matrix(.90865 .62028 -.44914 .79393 834.135 -280.052)"/><rect x="662" y="958" width="10" height="11" fill="#410b1b" rx="0" transform="matrix(-.97091 .08717 -.37437 -.99635 1966.317 1853.696)"/><rect x="480" y="296" width="10" height="25" fill="#410b1b" rx="0" transform="matrix(-.65968 .48845 -.8572 -.88119 1181.914 402.999)"/><rect x="456" y="183" width="8" height="8" fill="#410b1b" rx="0" transform="matrix(.94761 .51512 -.36422 .8573 123.097 -202.239)"/><rect x="306" y="670" width="11" height="24" fill="#553c01" rx="0" transform="matrix(.4904 .9563 -.88636 .31072 825.77 204.944)"/><rect x="1634" y="637" width="8" height="12" fill="#410b1b" rx="0" transform="matrix(-.58677 .86189 -.80768 -.51788 3126.684 -607.941)"/><rect x="1442" y="1135" width="9" height="20" fill="#410b1b" rx="0" transform="matrix(-.96623 .37483 -.27635 -.92775 2992.547 1715.587)"/><rect x="1883" y="405" width="12" height="32" fill="#410b1b" rx="0" transform="matrix(.83682 .39127 -.58436 .92177 503.258 -805.167)"/><rect x="1164" y="924" width="7" height="16" fill="#553c01" rx="0" transform="matrix(.8696 .86635 -.54537 .60663 753.808 -242.84)"/><rect x="114" y="252" width="9" height="16" fill="#553c01" rx="0" transform="matrix(.25865 .97324 -.95332 .27907 369.617 53.343)"/><rect x="735" y="35" width="10" height="21" fill="#553c01" rx="0" transform="matrix(.58592 .93872 -.84036 .36034 361.982 -587.773)"/><rect x="1183" y="823" width="11" height="29" fill="#553c01" rx="0" transform="matrix(-.9563 0 -.27412 -1.0457 2533.682 2076.628)"/><rect x="1068" y="1290" width="11" height="23" fill="#410b1b" rx="0" transform="matrix(-.3779 .87682 -.9223 -.50623 3003.998 849.07)"/><rect x="1600" y="715" width="11" height="31" fill="#553c01" rx="0" transform="matrix(.83874 .78139 -.52457 .70357 598.376 -516.316)"/><rect x="728" y="886" width="12" height="27" fill="#410b1b" rx="0" transform="matrix(.95734 .46976 -.32827 .88349 496.454 -265.63)"/><rect x="1861" y="199" width="7" height="10" fill="#410b1b" rx="0" transform="matrix(1.00633 -.08801 -.14035 1.00598 21.907 -99.16)"/><rect x="1549" y="590" width="7" height="8" fill="#410b1b" rx="0" transform="matrix(-.92935 .20995 -.3907 -.98776 3349.493 636.585)"/><rect x="471" y="190" width="9" height="15" fill="#553c01" rx="0" transform="matrix(-.20663 .92945 -.99242 -.37552 810.71 -203.537)"/><rect x="192" y="1345" width="8" height="10" fill="#410b1b" rx="0" transform="matrix(.19806 .99467 -1.02617 -.10454 1930.6 1299.6)"/><rect x="1709" y="653" width="12" height="30" fill="#410b1b" rx="0" transform="matrix(.82624 .54672 -.5568 .84187 706.153 -982.039)"/><rect x="504" y="1049" width="12" height="25" fill="#410b1b" rx="0" transform="matrix(.87527 .52468 -.44924 .87321 397.97 -33.865)"/><rect x="544" y="847" width="12" height="18" fill="#553c01" rx="0" transform="matrix(.97305 -.08764 .2888 1.00168 11.645 -11.047)"/><rect x="1747" y="221" width="7" height="15" fill="#410b1b" rx="0" transform="matrix(-.34407 .87454 -.94482 -.50491 2585.25 -940.986)"/><rect x="15" y="226" width="10" height="19" fill="#410b1b" rx="0" transform="matrix(-.03634 .96955 -1.01672 -.39172 272.828 314.474)"/><rect x="1294" y="1333" width="11" height="27" fill="#410b1b" rx="0" transform="matrix(.60755 .97284 -.80679 .35409 1655.51 -46.283)"/><rect x="1489" y="1220" width="9" height="24" fill="#410b1b" rx="0" transform="matrix(-.12237 1.00844 -.99804 .05285 2870.155 -549.12)"/><rect x="244" y="433" width="11" height="20" fill="#553c01" rx="0" transform="matrix(-.98313 .03544 -.06529 -1.0148 455.271 927.712)"/><rect x="1912" y="702" width="12" height="24" fill="#410b1b" rx="0" transform="matrix(.86784 .64633 -.51295 .77026 757.025 -1277.216)"/><rect x="389" y="43" width="7" height="7" fill="#410b1b" rx="0" transform="matrix(-.86603 .56056 -.5 -.83106 755.665 -162.321)"/><rect x="689" y="674" width="9" height="11" fill="#410b1b" rx="0" transform="matrix(.83337 .53284 -.54307 .85272 392.194 -196.556)"/><rect x="857" y="608" width="10" height="13" fill="#1b1c1e" rx="0" transform="matrix(.81013 .62932 -.5886 .77715 557.565 -405.53)"/><rect x="267" y="57" width="12" height="29" fill="#410b1b" rx="0" transform="matrix(.81115 .65808 -.5179 .81266 61.262 -82.795)"/><rect x="145" y="843" width="7" height="13" fill="#553c01" rx="0" transform="matrix(-.98516 -.08824 .072 -1.00861 110.942 1742.94)"/><rect x="1593" y="1139" width="13" height="29" fill="#553c01" rx="0" transform="matrix(1.0497 .4518 -.0612 .9263 236.95 -238.838)"/><rect x="316" y="1381" width="13" height="13" fill="#1b1c1e" rx="0" transform="matrix(.88482 .60578 -.43291 .83378 535.161 115.67)"/><rect x="255" y="452" width="13" height="28" fill="#410b1b" rx="0" transform="matrix(.26378 1.0148 -.99462 -.03544 718.894 263.251)"/><rect x="1261" y="426" width="7" height="16" fill="#553c01" rx="0" transform="matrix(.05104 1.00736 -.9918 .01758 1578.85 -692.172)"/><rect x="1770" y="1126" width="9" height="10" fill="#553c01" rx="0" transform="matrix(.95302 .5339 -.34787 .85442 594.819 -564.868)"/><rect x="834" y="221" width="10" height="14" fill="#410b1b" rx="0" transform="matrix(-.94162 .08824 -.56964 -1.00861 1876.159 516.813)"/><rect x="324" y="216" width="12" height="33" fill="#410b1b" rx="0" transform="matrix(-.2399 .75374 -1.103 -.70288 767.893 229.462)"/><rect x="286" y="760" width="8" height="10" fill="#553c01" rx="0" transform="matrix(.07759 .93198 -1.04005 .3956 936.347 146.16)"/><rect x="1495" y="599" width="8" height="9" fill="#1b1c1e" rx="0" transform="matrix(-.66225 .55719 -.7349 -.8917 2897.138 793.462)"/><rect x="1603" y="249" width="13" height="34" fill="#410b1b" rx="0" transform="matrix(-.91836 .30906 -.40916 -.9512 3225.644 -6.513)"/><rect x="250" y="456" width="9" height="20" fill="#553c01" rx="0" transform="matrix(.45206 1.01624 -1.01564 -.07106 780.222 289.953)"/><rect x="84" y="406" width="11" height="29" fill="#410b1b" rx="0" transform="matrix(.2811 1.00983 -.99027 0 541.615 342.699)"/><rect x="1278" y="1360" width="11" height="32" fill="#410b1b" rx="0" transform="matrix(-.31918 .94893 -.93765 -.34538 3172.737 452.912)"/><rect x="475" y="1220" width="7" height="20" fill="#553c01" rx="0" transform="matrix(-.39411 .97267 -.92984 -.24251 1706.102 1029.41)"/><rect x="734" y="707" width="13" height="24" fill="#1b1c1e" rx="0" transform="matrix(-.6722 .56131 -.74644 -.86435 1790.728 1109.44)"/><rect x="834" y="1381" width="11" height="12" fill="#553c01" rx="0" transform="matrix(-1.01061 -.12307 -.10514 -1.0023 1965.412 2998.49)"/><rect x="273" y="230" width="12" height="20" fill="#410b1b" rx="0" transform="matrix(.246 1.0238 -.99395 -.0716 475.545 35.953)"/><rect x="477" y="45" width="7" height="12" fill="#410b1b" rx="0" transform="matrix(1.06531 .44697 .04729 .95853 .487 -47.205)"/><rect x="1801" y="429" width="13" height="27" fill="#410b1b" rx="0" transform="matrix(-.28258 .9514 -.94822 -.34628 2771.062 -1410.216)"/><rect x="1888" y="351" width="10" height="19" fill="#410b1b" rx="0" transform="matrix(.44742 1.0292 -.99508 -.05394 1612.323 -1096.355)"/><rect x="1348" y="1177" width="13" height="35" fill="#553c01" rx="0" transform="matrix(.6297 .75471 -.77762 .65606 1388.72 -611.417)"/><rect x="1465" y="1018" width="13" height="13" fill="#410b1b" rx="0" transform="matrix(.85234 .87632 -.629 .52654 1121.64 -491.668)"/><rect x="597" y="352" width="11" height="11" fill="#410b1b" rx="0" transform="matrix(-.82434 .43965 -.50673 -.94283 1196.337 602.438)"/><rect x="923" y="610" width="9" height="21" fill="#410b1b" rx="0" transform="matrix(-.23557 .867 -1.00621 -.54176 1870.737 349.67)"/><rect x="1679" y="855" width="12" height="15" fill="#553c01" rx="0" transform="matrix(.61198 .94505 -.75967 .46093 1185.672 -579.969)"/><rect x="1538" y="559" width="13" height="23" fill="#1b1c1e" rx="0" transform="matrix(-.95277 .10478 -.47845 -.99695 3496.45 1085.424)"/><rect x="1226" y="1172" width="8" height="9" fill="#410b1b" rx="0" transform="matrix(-.57312 .7891 -.8195 -.6165 3015.97 866.775)"/><rect x="471" y="1352" width="11" height="17" fill="#1b1c1e" rx="0" transform="matrix(-.5329 .77762 -.85444 -.6297 2105.744 1830.037)"/><rect x="1986" y="1077" width="12" height="26" fill="#410b1b" rx="0" transform="matrix(-.62536 .40858 -.97423 -.96256 4884.636 1934.31)"/><rect x="385" y="1018" width="8" height="8" fill="#553c01" rx="0" transform="matrix(.96177 .24494 -.22522 .9824 92.756 -15.672)"/><rect x="1501" y="934" width="12" height="26" fill="#1b1c1e" rx="0" transform="matrix(-.97744 .2443 -.17304 -.97983 3195.284 1294.946)"/><rect x="202" y="414" width="9" height="21" fill="#410b1b" rx="0" transform="matrix(-.42423 .9397 -.90977 -.34202 643.162 375.641)"/><rect x="1179" y="233" width="9" height="22" fill="#553c01" rx="0" transform="matrix(.83567 .95298 -.69462 .40451 493.512 -665.432)"/><rect x="668" y="602" width="11" height="13" fill="#553c01" rx="0" transform="matrix(-.8773 .27373 -.37906 -1.02158 1346.836 1277.68)"/><rect x="448" y="1320" width="9" height="14" fill="#553c01" rx="0" transform="matrix(1.01364 .05234 .23402 .99863 63.8 -21.863)"/><rect x="1574" y="886" width="8" height="9" fill="#410b1b" rx="0" transform="matrix(-.6709 .46093 -.79399 -.94505 3491.2 1517.44)"/><rect x="330" y="639" width="11" height="16" fill="#410b1b" rx="0" transform="matrix(-.981 -.03582 -.1729 -1.02568 763.85 1400.087)"/><rect x="1913" y="29" width="12" height="15" fill="#410b1b" rx="0" transform="matrix(-.58815 .66558 -.77614 -.82193 3014.986 -549.987)"/><rect x="1717" y="446" width="7" height="13" fill="#410b1b" rx="0" transform="matrix(.51957 .9955 -.8653 .26674 1248.906 -951.984)"/><rect x="1541" y="1378" width="12" height="13" fill="#553c01" rx="0" transform="matrix(.98168 .06993 -.26196 1 234.305 -216.354)"/><rect x="1207" y="705" width="10" height="22" fill="#553c01" rx="0" transform="matrix(.75319 .6846 -.653 .73415 841.579 -745.425)"/><rect x="969" y="756" width="11" height="18" fill="#410b1b" rx="0" transform="matrix(-.86914 .60411 -.50192 -.80169 2181.716 704.323)"/><rect x="1001" y="936" width="9" height="19" fill="#410b1b" rx="0" transform="matrix(.7872 .8407 -.63828 .58866 879.178 -224.267)"/><rect x="1796" y="1377" width="8" height="17" fill="#410b1b" rx="0" transform="matrix(1.06225 .34223 -.0035 .94027 363.402 -470.392)"/><rect x="1724" y="205" width="11" height="24" fill="#553c01" rx="0" transform="matrix(-.6054 .67747 -.80371 -.7524 2931.341 -1065.34)"/><rect x="1976" y="1225" width="8" height="13" fill="#553c01" rx="0" transform="matrix(-.22802 1.00229 -.99374 -.0175 3501.645 -869.943)"/><rect x="1148" y="354" width="9" height="17" fill="#410b1b" rx="0" transform="matrix(-.32755 .6997 -1.0654 -.7771 2107.754 190.144)"/><rect x="1037" y="685" width="10" height="12" fill="#410b1b" rx="0" transform="matrix(-.52298 .8271 -.8291 -.60092 2031.603 465.889)"/><rect x="1898" y="1039" width="9" height="19" fill="#410b1b" rx="0" transform="matrix(-.19224 .95106 -.989 -.30902 3433.945 -436.88)"/><rect x="1557" y="479" width="10" height="24" fill="#410b1b" rx="0" transform="matrix(.05142 .98054 -1.03078 -.20842 2104.461 -829.038)"/><rect x="533" y="139" width="13" height="36" fill="#1b1c1e" rx="0" transform="matrix(1.0988 .59381 -.11479 .84805 45.52 -151.946)"/><rect x="773" y="1113" width="10" height="15" fill="#553c01" rx="0" transform="matrix(-.91024 .29398 -.42431 -.96157 2003.59 2050.995)"/><rect x="1438" y="592" width="10" height="20" fill="#1b1c1e" rx="0" transform="matrix(.62866 .74496 -.7763 .67076 1011.917 -977.681)"/><rect x="792" y="930" width="11" height="21" fill="#553c01" rx="0" transform="matrix(-.42754 .95689 -.91434 -.29255 1827.658 480.375)"/><rect x="1021" y="84" width="9" height="25" fill="#553c01" rx="0" transform="matrix(.83524 .8336 -.63623 .56227 277.52 -704.836)"/><rect x="716" y="1335" width="10" height="19" fill="#410b1b" rx="0" transform="matrix(.05253 1.00076 -.9974 .03495 2115.511 538.178)"/><rect x="607" y="118" width="10" height="13" fill="#553c01" rx="0" transform="matrix(-.78879 .38298 -.65882 -.9479 1203.518 138.217)"/><rect x="379" y="899" width="11" height="17" fill="#410b1b" rx="0" transform="matrix(-.97392 .39127 -.26138 -.92177 918.54 1573.411)"/><rect x="43" y="1300" width="13" height="33" fill="#553c01" rx="0" transform="matrix(-.7394 .46249 -.71106 -.90768 1161.596 2498.194)"/><rect x="943" y="928" width="13" height="23" fill="#410b1b" rx="0" transform="matrix(.94549 .22716 -.3068 .98395 382.245 -334.05)"/><rect x="80" y="1127" width="10" height="10" fill="#553c01" rx="0" transform="matrix(.68373 .79783 -.7192 .62334 1119.905 345.105)"/><rect x="391" y="1335" width="7" height="17" fill="#410b1b" rx="0" transform="matrix(-.00274 1.02058 -.97945 -.14343 1559.921 1231.943)"/><rect x="1406" y="184" width="13" height="21" fill="#410b1b" rx="0" transform="matrix(-.62733 .66834 -.7746 -.76884 2441.07 -325.427)"/><rect x="445" y="442" width="9" height="19" fill="#410b1b" rx="0" transform="matrix(-1.02828 .3306 -.03855 -.9601 883.41 657.128)"/><rect x="1720" y="916" width="9" height="14" fill="#410b1b" rx="0" transform="matrix(.39073 .96848 -.9205 .2777 1900.31 -791.727)"/><rect x="903" y="207" width="11" height="21" fill="#410b1b" rx="0" transform="matrix(.03468 1.01168 -.9952 -.19665 1085.7 -432.324)"/><rect x="325" y="647" width="12" height="33" fill="#410b1b" rx="0" transform="matrix(.87465 .38039 -.46408 .94149 391.727 -145.449)"/><rect x="1409" y="355" width="11" height="23" fill="#553c01" rx="0" transform="matrix(1.06828 .82193 -.35158 .66558 260.976 -552.998)"/><rect x="202" y="489" width="11" height="11" fill="#410b1b" rx="0" transform="matrix(-.56846 .73541 -.81083 -.71018 698.184 737.19)"/><rect x="409" y="396" width="7" height="15" fill="#553c01" rx="0" transform="matrix(-.8306 .72209 -.58277 -.69731 951.655 350.915)"/><rect x="1242" y="41" width="12" height="16" fill="#553c01" rx="0" transform="matrix(-.19218 1.00183 -.99146 -.03498 1539.767 -1286.84)"/><rect x="1307" y="1309" width="13" height="38" fill="#410b1b" rx="0" transform="matrix(.94452 .17431 -.3802 .98857 428.827 -328.695)"/><rect x="575" y="1240" width="7" height="20" fill="#410b1b" rx="0" transform="matrix(1.01834 .22664 -.00135 .98169 129.92 -37.19)"/><rect x="1562" y="566" width="9" height="15" fill="#410b1b" rx="0" transform="matrix(.95174 .24325 -.2937 .97564 127.125 -202.442)"/><rect x="41" y="1333" width="12" height="27" fill="#410b1b" rx="0" transform="matrix(-.94552 0 -.2144 -1.05762 236.916 2786.77)"/><rect x="922" y="448" width="9" height="22" fill="#553c01" rx="0" transform="matrix(-.14052 1.0023 -1.01496 .12307 1482.187 -656.33)"/><rect x="129" y="1206" width="7" height="18" fill="#410b1b" rx="0" transform="matrix(.9263 .56616 -.39298 .83937 898.367 99.16)"/><rect x="815" y="99" width="13" height="16" fill="#1b1c1e" rx="0" transform="matrix(.40755 .88308 -.9157 .46954 574.062 -654.354)"/><rect x="1236" y="663" width="12" height="34" fill="#553c01" rx="0" transform="matrix(.98766 .54471 -.19209 .90656 165.286 -185.34)"/><rect x="1274" y="1108" width="12" height="27" fill="#1b1c1e" rx="0" transform="matrix(1.0037 .4584 -.12361 .93986 186.731 -127.973)"/><rect x="1464" y="139" width="11" height="20" fill="#553c01" rx="0" transform="matrix(-.13244 .8917 -1.03871 -.55719 1895.803 -600.848)"/><rect x="282" y="709" width="13" height="31" fill="#410b1b" rx="0" transform="matrix(.44841 1.04171 -.99919 -.09114 1070.673 578.199)"/><rect x="537" y="57" width="12" height="15" fill="#410b1b" rx="0" transform="matrix(.58599 1.01463 -.83948 .25298 295.074 -336.75)"/><rect x="1947" y="1024" width="8" height="10" fill="#553c01" rx="0" transform="matrix(.8657 .69508 -.54221 .71978 1013.399 -999.626)"/><rect x="1632" y="789" width="8" height="14" fill="#553c01" rx="0" transform="matrix(-.95057 .07222 -.25335 -1.03275 3306.482 1938.29)"/><rect x="750" y="1296" width="12" height="22" fill="#553c01" rx="0" transform="matrix(.87337 .81213 -.54897 .6345 970.421 52.215)"/><rect x="1932" y="1018" width="13" height="37" fill="#410b1b" rx="0" transform="matrix(-.36714 .77026 -.99019 -.64633 3985.764 417.007)"/><rect x="953" y="1151" width="13" height="34" fill="#410b1b" rx="0" transform="matrix(.93946 .8215 -.53473 .59685 1040.954 -148.165)"/><rect x="237" y="966" width="7" height="18" fill="#553c01" rx="0" transform="matrix(-.9546 .48748 -.32923 -.87944 724.673 1689.935)"/><rect x="1771" y="43" width="10" height="23" fill="#553c01" rx="0" transform="matrix(.98044 .06993 -.27971 1 59.776 -248.38)"/><rect x="73" y="967" width="12" height="35" fill="#410b1b" rx="0" transform="matrix(-.05007 .9761 -1.03885 .27989 951.982 617.908)"/><rect x="1232" y="64" width="8" height="13" fill="#1b1c1e" rx="0" transform="matrix(.20893 .94487 -.9823 .3439 1049.094 -1251.512)"/><rect x="1104" y="1200" width="9" height="23" fill="#410b1b" rx="0" transform="matrix(.86519 .56227 -.4958 .8336 943.178 -538.2)"/><rect x="1265" y="106" width="11" height="15" fill="#1b1c1e" rx="0" transform="matrix(.40894 .94783 -.91423 .32636 858.613 -1216.599)"/><rect x="851" y="1380" width="9" height="9" fill="#1b1c1e" rx="0" transform="matrix(.81832 .6508 -.56133 .7756 1244.002 -381.566)"/><rect x="1011" y="682" width="7" height="8" fill="#553c01" rx="0" transform="matrix(-.56805 .77786 -.80892 -.6527 2070.043 523.498)"/><rect x="407" y="495" width="8" height="13" fill="#410b1b" rx="0" transform="matrix(-.69934 .66618 -.6966 -.76635 987.446 684.496)"/><rect x="958" y="1220" width="8" height="22" fill="#553c01" rx="0" transform="matrix(.28395 1.03018 -1.01062 -.14478 2144.677 694.047)"/><rect x="232" y="604" width="9" height="22" fill="#410b1b" rx="0" transform="matrix(-.76342 .42677 -.70602 -.91521 965.55 1110.163)"/><rect x="1642" y="1124" width="12" height="31" fill="#553c01" rx="0" transform="matrix(-.51852 .92275 -.86362 -.39169 3414.982 -50.11)"/><rect x="1520" y="1143" width="11" height="22" fill="#553c01" rx="0" transform="matrix(.32368 1.05082 -.94033 .0367 2088.079 4.29)"/><rect x="723" y="552" width="9" height="24" fill="#410b1b" rx="0" transform="matrix(1.0086 .34966 -.08883 .96069 81.508 -77.57)"/><rect x="450" y="301" width="8" height="16" fill="#553c01" rx="0" transform="matrix(.89834 .486 -.43699 .87676 215.224 -214.305)"/><rect x="967" y="1312" width="12" height="32" fill="#1b1c1e" rx="0" transform="matrix(.82773 .48666 -.56154 .87796 664.174 -226.327)"/><rect x="1627" y="871" width="13" height="28" fill="#410b1b" rx="0" transform="matrix(.726 .76412 -.6776 .66424 987.316 -692.314)"/><rect x="337" y="1064" width="9" height="20" fill="#1b1c1e" rx="0" transform="matrix(.7367 .83918 -.71322 .54497 1067 214.046)"/><rect x="640" y="1193" width="8" height="8" fill="#410b1b" rx="0" transform="matrix(-.34083 .9323 -.93492 -.37667 1894.16 1115.166)"/><rect x="1418" y="244" width="10" height="14" fill="#1b1c1e" rx="0" transform="matrix(-.68916 .64761 -.72282 -.7718 2602.709 -651.557)"/><rect x="1431" y="183" width="9" height="19" fill="#553c01" rx="0" transform="matrix(.87838 .59356 -.47575 .81697 263.684 -1018.57)"/><rect x="1061" y="1266" width="9" height="20" fill="#553c01" rx="0" transform="matrix(.98453 -.01767 .18975 1.01231 134.135 -165.64)"/><rect x="1853" y="658" width="11" height="18" fill="#410b1b" rx="0" transform="matrix(.95901 .85065 -.4788 .61803 619.634 -722.3)"/><rect x="1385" y="445" width="13" height="23" fill="#410b1b" rx="0" transform="matrix(-.88221 .21741 -.4491 -1.02284 2793.31 1046.323)"/><rect x="1634" y="600" width="9" height="13" fill="#410b1b" rx="0" transform="matrix(-.70962 .7671 -.70817 -.64367 3133.419 -174.13)"/><rect x="1041" y="1161" width="11" height="24" fill="#410b1b" rx="0" transform="matrix(.74818 .66834 -.63557 .76884 766.35 -224.84)"/><rect x="1130" y="746" width="12" height="17" fill="#553c01" rx="0" transform="matrix(.90906 .25945 -.46165 .96828 356.756 -350.244)"/><rect x="1578" y="558" width="11" height="32" fill="#410b1b" rx="0" transform="matrix(.43837 .85272 -.8988 .53284 1405.247 -1248.563)"/><rect x="1274" y="1150" width="13" height="16" fill="#1b1c1e" rx="0" transform="matrix(1.04 .30906 -.03476 .9512 336.22 -361.599)"/><rect x="1864" y="727" width="10" height="11" fill="#553c01" rx="0" transform="matrix(-.72442 .6019 -.70004 -.79876 3834.092 160.002)"/><rect x="1139" y="781" width="9" height="25" fill="#553c01" rx="0" transform="matrix(-.96432 -.1093 -.0261 -1.03996 2085.85 2093.304)"/><rect x="1294" y="833" width="11" height="15" fill="#410b1b" rx="0" transform="matrix(-.79465 .76213 -.62134 -.6625 2819.907 224.32)"/><rect x="1911" y="1231" width="10" height="28" fill="#410b1b" rx="0" transform="matrix(-.965 .0535 -.27664 -1.02094 4138.181 2820.812)"/><rect x="1679" y="1167" width="9" height="20" fill="#410b1b" rx="0" transform="matrix(1.0017 .05237 .01787 .99924 93.638 -146.054)"/><rect x="1163" y="315" width="7" height="11" fill="#410b1b" rx="0" transform="matrix(-.25882 1.01156 -.96593 -.0885 1777.992 -1036.809)"/><rect x="142" y="1104" width="8" height="23" fill="#410b1b" rx="0" transform="matrix(-.96531 .31134 -.24103 -.9582 613.321 2120.989)"/><rect x="333" y="948" width="13" height="24" fill="#410b1b" rx="0" transform="matrix(.95968 .49388 -.29346 .89099 313.324 2.969)"/><rect x="522" y="1179" width="7" height="11" fill="#553c01" rx="0" transform="matrix(-.9461 .61905 -.40442 -.79235 1322.854 1742.496)"/><rect x="299" y="239" width="13" height="21" fill="#1b1c1e" rx="0" transform="matrix(.7916 .69731 -.61435 .72209 260.248 -170.417)"/><rect x="631" y="1252" width="9" height="16" fill="#553c01" rx="0" transform="matrix(-.10484 .8303 -1.12822 -.60325 2608.051 1639.153)"/><rect x="1027" y="311" width="7" height="12" fill="#410b1b" rx="0" transform="matrix(.7309 .83974 -.64008 .63279 411.712 -414.11)"/><rect x="85" y="1158" width="11" height="20" fill="#1b1c1e" rx="0" transform="matrix(-.9822 .10467 -.20863 -.99589 484.526 2326.466)"/><rect x="1856" y="976" width="13" height="17" fill="#553c01" rx="0" transform="matrix(-.50885 .7211 -.89539 -.69635 3969.304 196.78)"/><rect x="1178" y="1022" width="9" height="24" fill="#410b1b" rx="0" transform="matrix(-.78795 .26674 -.80827 -.9955 3381.76 2042.75)"/><rect x="709" y="1347" width="12" height="23" fill="#410b1b" rx="0" transform="matrix(.63567 .9824 -.85944 .24494 1794.987 436.588)"/><rect x="660" y="452" width="12" height="29" fill="#410b1b" rx="0" transform="matrix(-.7133 .30742 -.9198 -1.00552 1805.286 947.23)"/><rect x="1283" y="1011" width="8" height="15" fill="#410b1b" rx="0" transform="matrix(-.24182 .97089 -.9697 -.24207 2548.714 60.459)"/><rect x="951" y="1248" width="8" height="14" fill="#410b1b" rx="0" transform="matrix(-1.00069 -.17896 -.08747 -1.01496 2046.497 2937.79)"/><rect x="1677" y="835" width="12" height="20" fill="#410b1b" rx="0" transform="matrix(-.71812 .63186 -.66349 -.80874 3278.88 853.522)"/><rect x="520" y="893" width="10" height="14" fill="#410b1b" rx="0" transform="matrix(.3879 .9323 -.9159 .37667 1062.093 126.724)"/><rect x="497" y="252" width="8" height="10" fill="#410b1b" rx="0" transform="matrix(.81845 .8717 -.59513 .58797 258.563 -168.046)"/><rect x="1101" y="1013" width="11" height="27" fill="#410b1b" rx="0" transform="matrix(-.53485 .53857 -.96663 -.89633 3030.833 1688.948)"/><rect x="1784" y="943" width="12" height="30" fill="#553c01" rx="0" transform="matrix(.17299 .97542 -.97885 .26136 2455.11 -1289.953)"/><rect x="1362" y="856" width="11" height="32" fill="#410b1b" rx="0" transform="matrix(-.97717 .05254 -.38911 -1.00244 3290.327 1793.93)"/><rect x="1729" y="1328" width="8" height="10" fill="#553c01" rx="0" transform="matrix(.85996 .43864 -.5166 .89934 864.635 -686.5)"/><rect x="211" y="322" width="9" height="17" fill="#410b1b" rx="0" transform="matrix(-.92719 .66618 -.4345 -.76635 528.165 402.22)"/><rect x="1037" y="841" width="9" height="19" fill="#410b1b" rx="0" transform="matrix(-.96905 .03568 -.2776 -1.02172 2324.296 1903.689)"/><rect x="338" y="956" width="10" height="25" fill="#553c01" rx="0" transform="matrix(.85522 .41073 -.51382 .92252 563.356 -114.051)"/><rect x="1713" y="1307" width="10" height="16" fill="#410b1b" rx="0" transform="matrix(.7245 .97797 -.8284 .26205 2078.344 -437.631)"/><rect x="1101" y="628" width="9" height="20" fill="#553c01" rx="0" transform="matrix(-.99452 -.03524 -.10453 -1.00921 2271.633 1476.206)"/><rect x="1490" y="860" width="8" height="9" fill="#410b1b" rx="0" transform="matrix(-.5214 .5332 -1.00768 -.8874 3555.084 1235.367)"/><rect x="956" y="19" width="7" height="9" fill="#410b1b" rx="0" transform="matrix(-.70154 .61576 -.7261 -.78813 1654.633 -532.048)"/><rect x="907" y="327" width="10" height="25" fill="#410b1b" rx="0" transform="matrix(.24192 .9406 -.9703 .36106 1020.783 -752.879)"/><rect x="722" y="28" width="11" height="12" fill="#410b1b" rx="0" transform="matrix(.57577 .86603 -.82228 .5 339.561 -613.033)"/><rect x="867" y="561" width="10" height="18" fill="#553c01" rx="0" transform="matrix(1.05595 .52881 -.06208 .91593 108.909 -112.947)"/><rect x="471" y="258" width="8" height="22" fill="#410b1b" rx="0" transform="matrix(.62942 .73236 -.77851 .68293 349.36 -237.685)"/><rect x="1771" y="82" width="9" height="16" fill="#553c01" rx="0" transform="matrix(-.9194 .07294 -.56113 -1.04314 3581.408 597.196)"/><rect x="1246" y="985" width="8" height="8" fill="#553c01" rx="0" transform="matrix(-.98841 -.03544 -.08599 -1.0148 2507.175 2257.351)"/><rect x="1239" y="828" width="12" height="34" fill="#410b1b" rx="0" transform="matrix(.60248 .64761 -.82612 .7718 1107.998 -766.316)"/><rect x="1884" y="135" width="9" height="14" fill="#410b1b" rx="0" transform="matrix(1.07288 .47532 -.08603 .89395 -7.224 -583.481)"/><rect x="1012" y="341" width="10" height="27" fill="#410b1b" rx="0" transform="matrix(.60606 .66618 -.8039 .76635 679.508 -774.001)"/><rect x="1714" y="741" width="8" height="12" fill="#553c01" rx="0" transform="matrix(-.99627 .13936 -.08658 -.99163 3406.303 1338.354)"/><rect x="317" y="391" width="13" height="20" fill="#410b1b" rx="0" transform="matrix(1.06773 .68962 -.26425 .7659 213.114 -48.557)"/><rect x="385" y="629" width="9" height="16" fill="#410b1b" rx="0" transform="matrix(.4716 .81347 -.88666 .59102 749.805 -97.268)"/><rect x="248" y="638" width="13" height="18" fill="#410b1b" rx="0" transform="matrix(.27346 1.04123 -.92197 .14634 665.849 370.02)"/><rect x="1845" y="924" width="12" height="29" fill="#410b1b" rx="0" transform="matrix(.60513 .73135 -.80303 .682 1385.912 -1055.291)"/><rect x="1457" y="554" width="11" height="31" fill="#553c01" rx="0" transform="matrix(.81014 .81714 -.56775 .6617 564.527 -527.214)"/><rect x="927" y="220" width="7" height="13" fill="#553c01" rx="0" transform="matrix(.32941 1 -.95955 .12278 871.134 -617.56)"/><rect x="516" y="73" width="8" height="8" fill="#410b1b" rx="0" transform="matrix(.84948 .66954 -.55012 .7436 132.064 -346.576)"/><rect x="1912" y="869" width="7" height="11" fill="#410b1b" rx="0" transform="matrix(-.6796 .67416 -.72856 -.74873 3815.653 473.11)"/><rect x="1961" y="911" width="7" height="11" fill="#410b1b" rx="0" transform="matrix(.06593 1.0249 -.97916 -.05371 2588.391 -594.143)"/><rect x="243" y="620" width="10" height="23" fill="#1b1c1e" rx="0" transform="matrix(-.42538 .83937 -.90445 -.56616 1105.712 741.589)"/><rect x="227" y="252" width="10" height="22" fill="#410b1b" rx="0" transform="matrix(-.39584 .97496 -.9343 -.22509 533.73 87.905)"/><rect x="247" y="794" width="7" height="7" fill="#553c01" rx="0" transform="matrix(-.40758 .87515 -.91673 -.4851 1180.539 956.398)"/><rect x="265" y="477" width="7" height="11" fill="#410b1b" rx="0" transform="matrix(-.19575 .84455 -1.05202 -.56966 952.102 582.789)"/><rect x="1571" y="984" width="7" height="17" fill="#410b1b" rx="0" transform="matrix(-.96575 .10493 -.34183 -.99832 3712.068 1680.374)"/><rect x="400" y="953" width="10" height="18" fill="#553c01" rx="0" transform="matrix(-.1418 1.00552 -.95116 -.30742 1204.237 982.093)"/><rect x="494" y="471" width="8" height="15" fill="#410b1b" rx="0" transform="matrix(-.4462 .85828 -.86416 -.57892 1047.7 461.527)"/><rect x="660" y="895" width="9" height="16" fill="#410b1b" rx="0" transform="matrix(-.17054 .9922 -.97779 -.17495 1761.624 320.072)"/><rect x="1090" y="320" width="10" height="16" fill="#410b1b" rx="0" transform="matrix(1.05671 .74472 -.32234 .71916 210.131 -429.945)"/><rect x="1536" y="1281" width="9" height="18" fill="#1b1c1e" rx="0" transform="matrix(-.9384 .05503 -.2665 -1.05002 3173.234 3060.294)"/><rect x="1341" y="1326" width="7" height="9" fill="#553c01" rx="0" transform="matrix(-.46444 .86392 -.8673 -.53984 2927.43 1148.557)"/><rect x="560" y="292" width="12" height="27" fill="#410b1b" rx="0" transform="matrix(.9253 .91091 -.62634 .46413 371.984 -231.562)"/><rect x="1886" y="1278" width="11" height="14" fill="#410b1b" rx="0" transform="matrix(-.65468 .65967 -.76278 -.75887 4380.817 813.568)"/><rect x="1618" y="891" width="9" height="19" fill="#410b1b" rx="0" transform="matrix(.2668 1.01367 -1.02877 -.16055 2363.887 -225.019)"/><rect x="1332" y="164" width="8" height="22" fill="#1b1c1e" rx="0" transform="matrix(-.75706 .56056 -.66154 -.83106 2479.064 -521.892)"/><rect x="1250" y="1130" width="8" height="16" fill="#410b1b" rx="0" transform="matrix(-1.03447 -.18158 -.35962 -1.0298 3311.708 2921.01)"/><rect x="1282" y="700" width="13" height="16" fill="#410b1b" rx="0" transform="matrix(.50015 .88349 -.86595 .46976 1303.507 -807.955)"/><rect x="1398" y="942" width="9" height="24" fill="#553c01" rx="0" transform="matrix(-.98886 .03503 -.22731 -1.0032 3119.402 1984.63)"/><rect x="1830" y="474" width="9" height="20" fill="#410b1b" rx="0" transform="matrix(.99437 .05237 -.12205 .99924 54.743 -159.762)"/><rect x="68" y="31" width="11" height="14" fill="#410b1b" rx="0" transform="matrix(.95406 -.1409 .30832 1.00261 .225 -1.384)"/><rect x="20" y="575" width="12" height="12" fill="#553c01" rx="0" transform="matrix(-.90984 .64524 -.4655 -.76897 238.78 1008.72)"/><rect x="295" y="128" width="9" height="16" fill="#410b1b" rx="0" transform="matrix(-.00024 .99405 -1.00595 -.1397 444.882 -116.515)"/><rect x="217" y="556" width="7" height="12" fill="#1b1c1e" rx="0" transform="matrix(1.00999 .3558 -.03562 .97756 39.649 -2.617)"/><rect x="1417" y="57" width="7" height="10" fill="#1b1c1e" rx="0" transform="matrix(.21252 1.00356 -1.03777 -.19507 1253.693 -1049.522)"/><rect x="1612" y="1174" width="11" height="20" fill="#410b1b" rx="0" transform="matrix(.02062 1.00413 -.99697 -.05262 2943.35 -547.88)"/><rect x="588" y="495" width="13" height="36" fill="#1b1c1e" rx="0" transform="matrix(.94333 .44268 -.32486 .90763 189.93 -132.234)"/><rect x="1570" y="891" width="13" height="21" fill="#553c01" rx="0" transform="matrix(.4552 .92177 -.89165 .39127 1763.248 -987.016)"/><rect x="658" y="1232" width="10" height="29" fill="#1b1c1e" rx="0" transform="matrix(.96638 .7771 -.4167 .6997 745.379 61.8)"/><rect x="1368" y="503" width="12" height="19" fill="#553c01" rx="0" transform="matrix(.2369 .97983 -.96152 .2443 1442.11 -765.889)"/><rect x="150" y="1372" width="11" height="30" fill="#410b1b" rx="0" transform="matrix(-.41794 .8268 -.89453 -.62304 1386.331 2164.26)"/><rect x="35" y="825" width="13" height="34" fill="#410b1b" rx="0" transform="matrix(.98653 .83513 -.45402 .62931 564.514 290.149)"/><rect x="1419" y="116" width="10" height="23" fill="#553c01" rx="0" transform="matrix(.2937 .97675 -.956 .2255 1131.574 -1391.718)"/><rect x="264" y="1071" width="9" height="15" fill="#553c01" rx="0" transform="matrix(1.07715 .62334 -.22558 .79783 586.813 93.197)"/><rect x="1668" y="964" width="8" height="18" fill="#410b1b" rx="0" transform="matrix(-.66507 .53984 -.78807 -.86392 3710.168 1235.99)"/><rect x="1681" y="11" width="9" height="23" fill="#410b1b" rx="0" transform="matrix(.1053 .99756 -1.01166 -.08728 1546.358 -1568.593)"/><rect x="1433" y="55" width="9" height="25" fill="#553c01" rx="0" transform="matrix(-.69824 .60325 -.69665 -.8303 2460.32 -411.749)"/><rect x="134" y="161" width="10" height="13" fill="#410b1b" rx="0" transform="matrix(.58531 .76897 -.8093 .64524 164.744 -35.304)"/><rect x="1509" y="1082" width="11" height="20" fill="#410b1b" rx="0" transform="matrix(.5418 .8151 -.8332 .5922 1667.155 -975.097)"/><rect x="884" y="120" width="13" height="17" fill="#410b1b" rx="0" transform="matrix(.72628 .90547 -.70181 .50191 346.752 -503.71)"/><rect x="334" y="357" width="8" height="13" fill="#410b1b" rx="0" transform="matrix(1.025 .30132 .0339 .98558 18.408 -12.333)"/><rect x="754" y="726" width="7" height="15" fill="#410b1b" rx="0" transform="matrix(.92437 .32681 -.37531 .94913 220.185 -143.974)"/><rect x="318" y="205" width="11" height="23" fill="#410b1b" rx="0" transform="matrix(.00744 1.03996 -.96235 -.1093 473.83 2.64)"/><rect x="10" y="306" width="10" height="25" fill="#410b1b" rx="0" transform="matrix(.98122 .59381 -.28272 .84805 112.88 43.509)"/><rect x="119" y="1221" width="10" height="24" fill="#1b1c1e" rx="0" transform="matrix(.2764 .98721 -.96422 .17407 1321.967 904.626)"/><rect x="1142" y="787" width="9" height="16" fill="#553c01" rx="0" transform="matrix(.59231 1.02284 -.85177 .21741 1264.967 -200.009)"/><rect x="1591" y="467" width="7" height="15" fill="#553c01" rx="0" transform="matrix(.98836 .26366 -.10412 .984 40.576 -102.882)"/><rect x="214" y="1174" width="9" height="26" fill="#1b1c1e" rx="0" transform="matrix(-.94652 .39127 -.32593 -.92177 791.675 2184.196)"/><rect x="527" y="847" width="8" height="18" fill="#410b1b" rx="0" transform="matrix(1.04106 .6031 -.17132 .8613 269.398 -28.99)"/><rect x="1479" y="1306" width="11" height="21" fill="#410b1b" rx="0" transform="matrix(1.05876 .27602 .06934 .96258 247.77 -282.684)"/><rect x="1665" y="625" width="11" height="11" fill="#410b1b" rx="0" transform="matrix(.1639 1.02068 -.96251 .10728 1842.61 -756.523)"/><rect x="1511" y="573" width="10" height="24" fill="#410b1b" rx="0" transform="matrix(-.5592 .68962 -.82904 -.7659 2848.723 365.573)"/><rect x="1135" y="337" width="9" height="9" fill="#410b1b" rx="0" transform="matrix(.77691 .75887 -.6424 .65967 532.997 -868.273)"/><rect x="684" y="1297" width="13" height="18" fill="#1b1c1e" rx="0" transform="matrix(.06055 .93986 -1.09352 -.4584 2427.077 1466.804)"/><rect x="1824" y="691" width="13" height="34" fill="#1b1c1e" rx="0" transform="matrix(-.35102 .83867 -.96441 -.54464 3319.293 -441.582)"/><rect x="46" y="704" width="8" height="14" fill="#410b1b" rx="0" transform="matrix(-.55418 .71945 -.85478 -.69476 836.402 1168.132)"/><rect x="1605" y="648" width="9" height="13" fill="#410b1b" rx="0" transform="matrix(.80057 .91704 -.73403 .40829 1075.256 -947.88)"/><rect x="1263" y="379" width="7" height="8" fill="#1b1c1e" rx="0" transform="matrix(-.08737 1.00122 -1.0003 .01748 1743.68 -958.113)"/><rect x="1453" y="1220" width="11" height="25" fill="#410b1b" rx="0" transform="matrix(.83333 .39288 -.5821 .92558 847.093 -634.586)"/><rect x="717" y="1352" width="12" height="31" fill="#553c01" rx="0" transform="matrix(-.04872 .90554 -1.08055 -.44166 2681.099 1405.54)"/><rect x="770" y="534" width="11" height="31" fill="#410b1b" rx="0" transform="matrix(-.54464 .67216 -.83867 -.80105 1658.717 705.51)"/><rect x="507" y="748" width="12" height="20" fill="#410b1b" rx="0" transform="matrix(-.3514 .8917 -.90188 -.55719 1263.361 889.597)"/><rect x="1407" y="128" width="7" height="8" fill="#553c01" rx="0" transform="matrix(.63069 1.0536 -.89395 .09218 770.21 -880.59)"/><rect x="970" y="455" width="13" height="18" fill="#1b1c1e" rx="0" transform="matrix(.90187 .36106 -.42018 .9406 308.82 -444.908)"/><rect x="1746" y="1205" width="10" height="17" fill="#410b1b" rx="0" transform="matrix(1.02406 .6438 -.24256 .82402 498.001 -378.39)"/><rect x="913" y="837" width="11" height="22" fill="#553c01" rx="0" transform="matrix(.99694 .01746 -.17544 1 34.66 -32.065)"/><rect x="1941" y="488" width="7" height="15" fill="#1b1c1e" rx="0" transform="matrix(.12254 1.01314 -.99991 -.10648 2232.19 -1043.807)"/><rect x="1938" y="450" width="10" height="17" fill="#553c01" rx="0" transform="matrix(.99912 .93382 -.53962 .49652 572.434 -914.546)"/><rect x="902" y="464" width="12" height="27" fill="#553c01" rx="0" transform="matrix(.9594 .10614 -.29326 1.00986 171.35 -261.191)"/><rect x="1380" y="744" width="11" height="25" fill="#553c01" rx="0" transform="matrix(-.9586 .3102 -.27351 -.95469 2812.77 1170.16)"/><rect x="363" y="1310" width="13" height="29" fill="#410b1b" rx="0" transform="matrix(-.1028 1 -.9892 -.1051 1852.804 1055.375)"/><rect x="1067" y="671" width="13" height="31" fill="#553c01" rx="0" transform="matrix(-.76681 .68241 -.64308 -.7318 2274.806 493.796)"/><rect x="867" y="1313" width="9" height="13" fill="#553c01" rx="0" transform="matrix(-.33986 .94107 -.91836 -.39946 2141.134 1211.689)"/><rect x="535" y="1172" width="10" height="16" fill="#553c01" rx="0" transform="matrix(1.09 .36034 .0644 .93872 301.246 -65.521)"/><rect x="1855" y="1069" width="8" height="9" fill="#553c01" rx="0" transform="matrix(.61346 1.0346 -.90208 .10874 2057.858 -433.496)"/><rect x="173" y="21" width="9" height="10" fill="#410b1b" rx="0" transform="matrix(-.66913 .75482 -.74314 -.65616 315.592 -94.02)"/><rect x="529" y="1118" width="8" height="21" fill="#410b1b" rx="0" transform="matrix(-.72442 .57498 -.70462 -.82115 1966.207 1711.437)"/><rect x="1147" y="1253" width="8" height="11" fill="#410b1b" rx="0" transform="matrix(-.92266 .24374 -.40219 -.97758 3039.473 2066.92)"/><rect x="150" y="215" width="8" height="13" fill="#410b1b" rx="0" transform="matrix(.95519 .54597 -.36074 .84072 147.232 -59.567)"/><rect x="741" y="254" width="8" height="20" fill="#553c01" rx="0" transform="matrix(-.42308 .87582 -.90727 -.48547 1305.006 -221.277)"/><rect x="619" y="1046" width="11" height="29" fill="#1b1c1e" rx="0" transform="matrix(-.11569 .93715 -1.02266 -.35974 2127.625 802.116)"/><rect x="656" y="1053" width="10" height="26" fill="#410b1b" rx="0" transform="matrix(.9664 .17535 -.22201 .99449 344.01 -202.93)"/><rect x="1423" y="1319" width="10" height="11" fill="#553c01" rx="0" transform="matrix(.96342 .12339 -.2581 1.00492 413.263 -408.886)"/><rect x="1160" y="792" width="8" height="14" fill="#553c01" rx="0" transform="matrix(-.25719 .989 -.96113 -.19224 2265.692 -341.515)"/><rect x="287" y="237" width="11" height="26" fill="#410b1b" rx="0" transform="matrix(1.07322 .38298 .0452 .9479 39.355 -36.822)"/><rect x="231" y="1169" width="11" height="28" fill="#410b1b" rx="0" transform="matrix(-.97974 -.05394 -.15487 -1.0292 608.048 2472.267)"/><rect x="1278" y="780" width="9" height="9" fill="#410b1b" rx="0" transform="matrix(.39073 1.03996 -.9205 .1093 1503.523 -242.903)"/><rect x="359" y="837" width="12" height="32" fill="#410b1b" rx="0" transform="matrix(.44357 1.00137 -.96761 .07002 1282.217 459.702)"/><rect x="1520" y="339" width="9" height="9" fill="#553c01" rx="0" transform="matrix(.99421 -.01758 -.08694 1.00736 41.413 -162.906)"/><rect x="621" y="1339" width="8" height="19" fill="#410b1b" rx="0" transform="matrix(-.72205 .60411 -.69713 -.80169 2065.355 2106.683)"/><rect x="1284" y="1124" width="13" height="13" fill="#410b1b" rx="0" transform="matrix(.35586 .9707 -.92813 .27835 1811.76 -255.502)"/><rect x="27" y="1231" width="11" height="13" fill="#410b1b" rx="0" transform="matrix(-.27958 .82115 -1.02204 -.57498 1661.859 1924.62)"/><rect x="831" y="1156" width="7" height="18" fill="#410b1b" rx="0" transform="matrix(-.97867 .42677 -.2444 -.91521 1881.027 1757.803)"/><rect x="85" y="758" width="11" height="18" fill="#1b1c1e" rx="0" transform="matrix(.93977 .42495 -.3379 .9113 411.86 20.063)"/><rect x="1113" y="1057" width="8" height="21" fill="#410b1b" rx="0" transform="matrix(.56028 .89591 -.8307 .4565 1398.628 -303.14)"/><rect x="1395" y="108" width="10" height="18" fill="#410b1b" rx="0" transform="matrix(.70594 .64633 -.7059 .77026 493.747 -1025.126)"/><rect x="540" y="1291" width="7" height="15" fill="#1b1c1e" rx="0" transform="matrix(.04568 1.01 -.9933 -.07063 2133.333 755.192)"/><rect x="1117" y="310" width="10" height="22" fill="#553c01" rx="0" transform="matrix(.89238 .60264 -.47514 .79973 313.19 -553.075)"/><rect x="726" y="63" width="10" height="20" fill="#410b1b" rx="0" transform="matrix(.3479 .9761 -.92474 .27989 530.258 -789.85)"/><rect x="1360" y="805" width="12" height="27" fill="#553c01" rx="0" transform="matrix(1.0086 .34966 -.08883 .96069 119.078 -155.106)"/><rect x="796" y="376" width="8" height="23" fill="#553c01" rx="0" transform="matrix(-.84394 .5634 -.52377 -.83526 1601.181 358.678)"/><rect x="921" y="21" width="11" height="14" fill="#553c01" rx="0" transform="matrix(-.60514 .73147 -.80282 -.6821 1513.502 -614.431)"/><rect x="614" y="330" width="10" height="11" fill="#410b1b" rx="0" transform="matrix(-.90172 .26281 -.43974 -.98083 1332.459 611.033)"/><rect x="1947" y="75" width="9" height="15" fill="#410b1b" rx="0" transform="matrix(.47426 .95469 -.89337 .3102 1121.848 -1635.434)"/><rect x="1661" y="410" width="10" height="23" fill="#553c01" rx="0" transform="matrix(1.09519 .50696 .00324 .91458 54.954 -299.247)"/><rect x="1508" y="460" width="12" height="15" fill="#410b1b" rx="0" transform="matrix(.90185 .3639 -.39864 .94798 359.59 -793.58)"/><rect x="431" y="1350" width="13" height="24" fill="#553c01" rx="0" transform="matrix(.75386 .9305 -.70701 .45384 1226.107 454.01)"/><rect x="76" y="901" width="9" height="13" fill="#410b1b" rx="0" transform="matrix(.75385 .68366 -.6543 .73314 708.38 181.512)"/><rect x="1889" y="671" width="11" height="20" fill="#410b1b" rx="0" transform="matrix(.8077 .95728 -.75064 .34842 1196.275 -1001.59)"/><rect x="1713" y="857" width="13" height="28" fill="#553c01" rx="0" transform="matrix(-.62568 .5358 -.82508 -.89171 3657.374 1219.441)"/><rect x="864" y="90" width="11" height="18" fill="#410b1b" rx="0" transform="matrix(.24275 .9824 -.9574 .24494 747.079 -917.153)"/><rect x="1600" y="1294" width="13" height="13" fill="#410b1b" rx="0" transform="matrix(.87404 .26281 -.54305 .98083 783.692 -680.542)"/><rect x="1781" y="201" width="9" height="23" fill="#1b1c1e" rx="0" transform="matrix(.8138 .62028 -.57055 .79393 423.526 -844.497)"/><rect x="19" y="938" width="13" height="35" fill="#410b1b" rx="0" transform="matrix(.81902 .57366 -.5735 .81928 535.902 158.498)"/><rect x="1141" y="346" width="10" height="28" fill="#410b1b" rx="0" transform="matrix(-.0174 .99801 -1.00413 .12254 1519.06 -948.287)"/><rect x="77" y="67" width="10" height="28" fill="#410b1b" rx="0" transform="matrix(-.30827 .99127 -.94888 -.19268 185.35 3.799)"/><rect x="1661" y="35" width="12" height="18" fill="#410b1b" rx="0" transform="matrix(-.15863 .99863 -1.01525 .08737 1988.907 -1741.124)"/><rect x="1394" y="1155" width="13" height="27" fill="#410b1b" rx="0" transform="matrix(.97632 .22716 -.17324 .98395 116.143 -102.553)"/><rect x="168" y="942" width="7" height="16" fill="#553c01" rx="0" transform="matrix(-.00035 .98938 -1.01062 -.32147 1166.538 1134.894)"/><rect x="438" y="727" width="10" height="12" fill="#553c01" rx="0" transform="matrix(.35561 .9582 -.92808 .31134 910.685 134.701)"/><rect x="291" y="350" width="13" height="35" fill="#553c01" rx="0" transform="matrix(-.07206 .96656 -1.01394 -.27716 733.472 213.073)"/><rect x="270" y="387" width="9" height="14" fill="#410b1b" rx="0" transform="matrix(-.78307 .35102 -.69739 -.96441 836.665 740.997)"/><rect x="1695" y="1096" width="9" height="22" fill="#410b1b" rx="0" transform="matrix(.15639 .9901 -.98523 .15682 2593.462 -868.112)"/><rect x="1851" y="279" width="9" height="10" fill="#410b1b" rx="0" transform="matrix(.97148 .53284 -.32205 .85272 175.015 -1141.875)"/><rect x="774" y="770" width="13" height="36" fill="#410b1b" rx="0" transform="matrix(1.04605 .59978 -.17335 .85658 263.255 -116.494)"/><rect x="1834" y="695" width="12" height="33" fill="#410b1b" rx="0" transform="matrix(-.00859 .93773 -1.06275 -.39804 2839.213 -373.062)"/><rect x="83" y="349" width="12" height="27" fill="#410b1b" rx="0" transform="matrix(-.71276 .79973 -.71332 -.60264 379.707 505.117)"/><rect x="1907" y="561" width="11" height="13" fill="#553c01" rx="0" transform="matrix(.15822 1.0245 -1.00399 -.18065 2238.15 -740.93)"/><rect x="1869" y="334" width="7" height="11" fill="#410b1b" rx="0" transform="matrix(.9962 .12194 -.08716 .99315 36.715 -160.625)"/><rect x="247" y="327" width="7" height="9" fill="#1b1c1e" rx="0" transform="matrix(-.96156 -.16545 -.02684 -1.0446 441.555 805.484)"/><rect x="1956" y="687" width="8" height="20" fill="#410b1b" rx="0" transform="matrix(-.21035 .92493 -.9875 -.4118 3113.367 -518.406)"/><rect x="1926" y="556" width="12" height="13" fill="#410b1b" rx="0" transform="matrix(.92781 .22664 -.39347 .98169 343.74 -664.788)"/><rect x="395" y="308" width="7" height="8" fill="#410b1b" rx="0" transform="matrix(.2999 1.00967 -.99565 -.01762 654.522 -28.85)"/><rect x="316" y="463" width="10" height="26" fill="#1b1c1e" rx="0" transform="matrix(.2847 1.01632 -1.02396 -.14283 823.944 291.86)"/><rect x="1668" y="1305" width="13" height="17" fill="#553c01" rx="0" transform="matrix(-.62648 .84691 -.77392 -.55 3777.736 382.423)"/><rect x="26" y="784" width="10" height="16" fill="#553c01" rx="0" transform="matrix(.2681 .87253 -.9913 .50375 697.027 362.171)"/><rect x="857" y="920" width="12" height="29" fill="#1b1c1e" rx="0" transform="matrix(-.84187 .26674 -.60704 -.9955 2297.974 1849.763)"/><rect x="385" y="1118" width="11" height="14" fill="#553c01" rx="0" transform="matrix(-.16965 .93715 -1.00195 -.35974 1896.73 1129.584)"/><rect x="1421" y="706" width="10" height="23" fill="#410b1b" rx="0" transform="matrix(.26288 .90852 -.9781 .42365 1687.996 -981.735)"/><rect x="1120" y="112" width="8" height="13" fill="#410b1b" rx="0" transform="matrix(.98828 -.07014 .12397 1.00306 -1.461 -39.661)"/><rect x="583" y="192" width="10" height="22" fill="#410b1b" rx="0" transform="matrix(-.03586 .9783 -1.01456 -.20794 848.82 -319.762)"/><rect x="1105" y="599" width="13" height="29" fill="#410b1b" rx="0" transform="matrix(.27887 1.0148 -.97567 .03544 1456.71 -340.213)"/><rect x="1951" y="586" width="7" height="20" fill="#553c01" rx="0" transform="matrix(-.12276 .87939 -1.06628 -.50771 3064.472 -475.53)"/><rect x="238" y="1219" width="11" height="19" fill="#410b1b" rx="0" transform="matrix(1.04391 .2255 .0871 .97675 192.854 -9.319)"/><rect x="1112" y="885" width="10" height="24" fill="#410b1b" rx="0" transform="matrix(.75758 .91311 -.74189 .4258 1194.093 -367.733)"/><rect x="1250" y="963" width="13" height="34" fill="#410b1b" rx="0" transform="matrix(-.32057 .78143 -1.02012 -.63279 2977.89 750.332)"/><rect x="856" y="1220" width="8" height="21" fill="#553c01" rx="0" transform="matrix(.17053 1 -.97603 .14054 1772.316 318.43)"/><rect x="108" y="1048" width="8" height="19" fill="#1b1c1e" rx="0" transform="matrix(.21036 .99772 -.98758 .06977 1299.987 870.022)"/><rect x="702" y="1380" width="8" height="23" fill="#1b1c1e" rx="0" transform="matrix(-.28945 .92244 -.94291 -.4499 2113.713 1529.292)"/><rect x="1294" y="130" width="9" height="25" fill="#1b1c1e" rx="0" transform="matrix(.2673 .97887 -1.11362 -.33705 1278.976 -732.604)"/><rect x="1644" y="179" width="9" height="25" fill="#410b1b" rx="0" transform="matrix(-.72428 .35409 -.83425 -.97284 3171.895 235.804)"/><rect x="854" y="913" width="13" height="38" fill="#410b1b" rx="0" transform="matrix(-.03487 1.00046 -.99893 -.01746 1837.259 57.333)"/><rect x="1983" y="1157" width="7" height="14" fill="#410b1b" rx="0" transform="matrix(-.17365 .98178 -.9848 -.19084 3477.768 -529.49)"/><rect x="716" y="1242" width="11" height="16" fill="#410b1b" rx="0" transform="matrix(-1.00405 -.0535 -.46857 -1.02094 2460.678 2718.138)"/><rect x="129" y="438" width="10" height="24" fill="#410b1b" rx="0" transform="matrix(.97811 .55928 -.3379 .82916 267.77 4.272)"/><rect x="327" y="861" width="12" height="27" fill="#410b1b" rx="0" transform="matrix(.88959 .68604 -.4343 .7892 382.465 57.709)"/><rect x="533" y="775" width="9" height="25" fill="#553c01" rx="0" transform="matrix(-.57921 .891 -.8272 -.45399 1389.573 666.102)"/><rect x="826" y="645" width="8" height="10" fill="#553c01" rx="0" transform="matrix(-.96212 .57921 -.35242 -.8272 1792.151 590.286)"/><rect x="425" y="920" width="7" height="7" fill="#553c01" rx="0" transform="matrix(.8835 .42288 -.47007 .90686 401.923 -80.224)"/><rect x="264" y="411" width="11" height="11" fill="#410b1b" rx="0" transform="matrix(.1949 .92945 -.99716 .37552 583.469 -9.236)"/><rect x="1335" y="851" width="10" height="15" fill="#1b1c1e" rx="0" transform="matrix(-.98748 .25917 -.17308 -.96725 2681.289 1411.818)"/><rect x="774" y="193" width="13" height="15" fill="#410b1b" rx="0" transform="matrix(-.27354 .9576 -.92817 -.40648 1112.89 -241.604)"/><rect x="850" y="1018" width="11" height="22" fill="#553c01" rx="0" transform="matrix(-.8933 .22619 -.55176 -.97974 2445.798 1933.56)"/><rect x="618" y="971" width="11" height="28" fill="#1b1c1e" rx="0" transform="matrix(.07249 .9636 -1.01698 .27631 1447.726 68.425)"/><rect x="1605" y="183" width="12" height="17" fill="#553c01" rx="0" transform="matrix(.1654 1.00736 -.98981 .01758 1532.413 -1632.524)"/><rect x="621" y="834" width="10" height="29" fill="#410b1b" rx="0" transform="matrix(-.54301 .70721 -.87099 -.70721 1913.788 994.928)"/><rect x="243" y="61" width="11" height="11" fill="#553c01" rx="0" transform="matrix(-.91311 .36106 -.3909 -.9406 507.102 8.814)"/><rect x="1575" y="24" width="13" height="32" fill="#1b1c1e" rx="0" transform="matrix(.33675 .95481 -.93137 .32877 1053.976 -1260.919)"/><rect x="543" y="1023" width="7" height="7" fill="#410b1b" rx="0" transform="matrix(-.5133 .60663 -.9154 -.86635 1915.812 1772.464)"/><rect x="1402" y="1374" width="7" height="10" fill="#410b1b" rx="0" transform="matrix(-.9205 .53652 -.39073 -.85862 3238.088 1586.34)"/><rect x="567" y="538" width="9" height="22" fill="#410b1b" rx="0" transform="matrix(-.94515 .20794 -.36244 -.9783 1389.19 977.22)"/><rect x="1959" y="1318" width="11" height="12" fill="#410b1b" rx="0" transform="matrix(-.69717 .38298 -.88558 -.9479 5106.266 2244.228)"/><rect x="14" y="1262" width="10" height="12" fill="#410b1b" rx="0" transform="matrix(-.27571 .89318 -.97911 -.4551 1605.154 1826.767)"/><rect x="1101" y="1171" width="12" height="33" fill="#410b1b" rx="0" transform="matrix(.02105 .96349 -1.03146 .29457 2142.01 -364.8)"/><rect x="357" y="1079" width="9" height="22" fill="#410b1b" rx="0" transform="matrix(-.9769 -.03613 -.2973 -1.03465 1121.7 2327.688)"/><rect x="1962" y="292" width="10" height="19" fill="#410b1b" rx="0" transform="matrix(.96053 .76936 -.43492 .69273 340.006 -893.635)"/><rect x="1396" y="316" width="13" height="30" fill="#1b1c1e" rx="0" transform="matrix(-.92108 .3306 -.34988 -.9601 2728.85 432.44)"/><rect x="828" y="544" width="13" height="29" fill="#410b1b" rx="0" transform="matrix(-.93137 .62171 -.41636 -.79575 1797.893 366.83)"/><rect x="56" y="210" width="8" height="20" fill="#1b1c1e" rx="0" transform="matrix(.92992 .45461 -.3746 .89223 117.095 -6.712)"/><rect x="519" y="942" width="11" height="14" fill="#553c01" rx="0" transform="matrix(1.00048 .36637 -.1231 .95444 153.606 -37.438)"/><rect x="1517" y="810" width="9" height="26" fill="#553c01" rx="0" transform="matrix(.77715 .83756 -.62932 .60852 857.003 -544.469)"/><rect x="914" y="1079" width="9" height="25" fill="#553c01" rx="0" transform="matrix(1.00078 .486 -.2522 .87676 499.209 -247.636)"/><rect x="1658" y="538" width="10" height="18" fill="#410b1b" rx="0" transform="matrix(-.86568 .51535 -.49969 -.85769 3344.244 217.2)"/><rect x="888" y="125" width="11" height="11" fill="#553c01" rx="0" transform="matrix(-.918 .12744 -.3705 -1.0379 1747.982 425.25)"/><rect x="811" y="1023" width="8" height="16" fill="#1b1c1e" rx="0" transform="matrix(.43633 .94893 -.895 .34538 1342.138 16.077)"/><rect x="769" y="706" width="13" height="28" fill="#553c01" rx="0" transform="matrix(.99097 .29525 -.1457 .9657 287.118 -313.258)"/><rect x="1264" y="947" width="12" height="29" fill="#410b1b" rx="0" transform="matrix(.22392 .97267 -.97227 .24251 1828.573 -418.154)"/><rect x="1024" y="864" width="13" height="37" fill="#1b1c1e" rx="0" transform="matrix(.80797 .6997 -.53183 .7771 498.923 -209.281)"/><rect x="77" y="748" width="11" height="18" fill="#410b1b" rx="0" transform="matrix(-.29199 .95864 -.95388 -.29309 775.335 905.547)"/><rect x="1224" y="446" width="13" height="23" fill="#410b1b" rx="0" transform="matrix(.5296 .83918 -.84771 .54497 940.431 -781.467)"/><rect x="492" y="41" width="13" height="29" fill="#1b1c1e" rx="0" transform="matrix(-.22602 1.00844 -.97978 -.05285 666.06 -514.336)"/><rect x="1589" y="173" width="13" height="34" fill="#410b1b" rx="0" transform="matrix(-.26218 .77786 -1.06558 -.6527 2360.374 -645.735)"/><rect x="1561" y="803" width="8" height="17" fill="#410b1b" rx="0" transform="matrix(-.83458 .65646 -.56325 -.75517 3261.979 342.31)"/><rect x="1319" y="1364" width="12" height="23" fill="#410b1b" rx="0" transform="matrix(.691 .9233 -.71568 .49092 1362.77 -118.031)"/><rect x="868" y="1231" width="9" height="17" fill="#410b1b" rx="0" transform="matrix(.85479 .34459 -.5535 .94675 693.74 -341.78)"/><rect x="1641" y="1090" width="10" height="13" fill="#553c01" rx="0" transform="matrix(-.50723 .84423 -.82935 -.59114 3124.571 765.473)"/><rect x="938" y="229" width="12" height="33" fill="#410b1b" rx="0" transform="matrix(-1.01036 .29309 -.10724 -.95864 1902.067 138.162)"/><rect x="1222" y="544" width="8" height="12" fill="#410b1b" rx="0" transform="matrix(-.16692 .89976 -1.02636 -.45845 2122.496 -128.658)"/><rect x="375" y="512" width="12" height="15" fill="#553c01" rx="0" transform="matrix(.02038 1.00736 -.99305 -.01758 963.999 98.05)"/><rect x="1146" y="721" width="11" height="20" fill="#410b1b" rx="0" transform="matrix(.06699 1.00844 -.98812 .05285 1687.05 -307.024)"/><rect x="1768" y="424" width="11" height="15" fill="#410b1b" rx="0" transform="matrix(-.7585 .57393 -.65913 -.81965 3437.624 -170.746)"/><rect x="1818" y="959" width="9" height="13" fill="#553c01" rx="0" transform="matrix(-.17462 .99589 -.98578 -.10467 2962.229 -652.93)"/><rect x="957" y="652" width="10" height="18" fill="#1b1c1e" rx="0" transform="matrix(-.30673 .9347 -.93966 -.39676 1805.515 193.698)"/><rect x="850" y="986" width="11" height="20" fill="#410b1b" rx="0" transform="matrix(-.91 .44079 -.4029 -.90374 1882.681 1608.954)"/><rect x="1773" y="56" width="8" height="17" fill="#553c01" rx="0" transform="matrix(.97655 .24251 -.20679 .97267 48.735 -553.442)"/><rect x="300" y="241" width="13" height="23" fill="#410b1b" rx="0" transform="matrix(-.99863 -.19665 -.05234 -1.01168 625.795 644.641)"/><rect x="1343" y="1271" width="8" height="12" fill="#410b1b" rx="0" transform="matrix(-.41152 .99386 -.92618 -.19319 3009.673 -28.377)"/><rect x="1201" y="446" width="8" height="19" fill="#1b1c1e" rx="0" transform="matrix(-.08715 .99635 -.99604 -.08717 1755.393 -684.359)"/><rect x="73" y="948" width="11" height="11" fill="#410b1b" rx="0" transform="matrix(.30954 .97089 -.9528 .24207 996.097 649.214)"/><rect x="476" y="389" width="13" height="20" fill="#410b1b" rx="0" transform="matrix(-.45399 .89893 -.891 -.43844 1057.062 131.78)"/><rect x="1943" y="544" width="10" height="21" fill="#553c01" rx="0" transform="matrix(-.43093 .80547 -.87992 -.67587 3192.335 -6.838)"/><rect x="1404" y="178" width="9" height="23" fill="#410b1b" rx="0" transform="matrix(-.67304 .60663 -.68726 -.86635 2391.921 -15.774)"/><rect x="1803" y="571" width="9" height="26" fill="#410b1b" rx="0" transform="matrix(.96823 .39097 -.27674 .92107 301.535 -723.699)"/><rect x="1572" y="1331" width="8" height="11" fill="#553c01" rx="0" transform="matrix(.99571 -.03492 .12278 1 0 0)"/><rect x="636" y="383" width="10" height="13" fill="#410b1b" rx="0" transform="matrix(-.80102 .68366 -.60372 -.73314 1377.566 192.006)"/><rect x="215" y="967" width="10" height="28" fill="#553c01" rx="0" transform="matrix(.92286 .55 -.39713 .84691 697.026 -1.738)"/><rect x="1459" y="123" width="8" height="21" fill="#410b1b" rx="0" transform="matrix(-.64426 .68366 -.77183 -.73314 2514.649 -871.129)"/><rect x="1750" y="47" width="7" height="7" fill="#410b1b" rx="0" transform="matrix(.43977 .75887 -.93547 .65967 1053.201 -1497.787)"/><rect x="689" y="1202" width="10" height="24" fill="#1b1c1e" rx="0" transform="matrix(.76038 .74314 -.66099 .66913 1117.796 -114.067)"/><rect x="940" y="1042" width="7" height="10" fill="#553c01" rx="0" transform="matrix(-.90352 .63405 -.46142 -.78298 2197.61 1152.712)"/><rect x="1684" y="139" width="8" height="19" fill="#410b1b" rx="0" transform="matrix(.99958 .4068 -.21313 .91368 66.954 -644.394)"/><rect x="1168" y="1230" width="9" height="14" fill="#1b1c1e" rx="0" transform="matrix(.90833 .35842 -.42371 .93372 521.593 -317.8)"/><rect x="1464" y="333" width="7" height="7" fill="#1b1c1e" rx="0" transform="matrix(.96302 .20947 -.24324 .9855 54.288 -122.334)"/><rect x="1645" y="1030" width="13" height="38" fill="#410b1b" rx="0" transform="matrix(.82683 .69252 -.55734 .74264 1116.864 -1164.925)"/><rect x="954" y="751" width="13" height="34" fill="#410b1b" rx="0" transform="matrix(.99305 .51764 -.21183 .89658 223.095 -160.396)"/><rect x="83" y="1388" width="8" height="21" fill="#553c01" rx="0" transform="matrix(1.02568 .1908 .03582 .98163 270.544 9.094)"/><rect x="378" y="786" width="9" height="24" fill="#410b1b" rx="0" transform="matrix(-.5192 .87939 -.8374 -.50771 1352.01 799.345)"/><rect x="758" y="250" width="11" height="29" fill="#1b1c1e" rx="0" transform="matrix(-.99243 .01758 -.01549 -1.00736 1481.327 611.267)"/><rect x="203" y="256" width="10" height="23" fill="#553c01" rx="0" transform="matrix(-.3875 .91562 -.90316 -.44658 486.92 236.942)"/><rect x="901" y="1356" width="13" height="27" fill="#410b1b" rx="0" transform="matrix(.66306 .86044 -.76378 .517 1478.535 -39.994)"/><rect x="1648" y="1270" width="11" height="19" fill="#553c01" rx="0" transform="matrix(.53728 .91704 -.85126 .40829 2116.285 -903.887)"/><rect x="472" y="319" width="13" height="26" fill="#410b1b" rx="0" transform="matrix(-.58599 .83718 -.79922 -.56469 953.84 186.132)"/><rect x="1521" y="1329" width="13" height="25" fill="#410b1b" rx="0" transform="matrix(.08749 1 -1.02509 -.28675 2924.702 636.673)"/><rect x="654" y="1178" width="7" height="14" fill="#410b1b" rx="0" transform="matrix(-.27995 .87036 -.97402 -.54386 2065.844 1409.01)"/><rect x="426" y="468" width="9" height="9" fill="#410b1b" rx="0" transform="matrix(.89463 .30977 -.47481 .95338 223.214 -141.432)"/><rect x="652" y="10" width="8" height="11" fill="#410b1b" rx="0" transform="matrix(1.0156 .66247 -.29916 .7895 25.973 -267.755)"/><rect x="1070" y="549" width="11" height="32" fill="#410b1b" rx="0" transform="matrix(-.9121 .26674 -.3449 -.9955 2134.25 1108.726)"/><rect x="354" y="999" width="12" height="32" fill="#410b1b" rx="0" transform="matrix(-.24068 .74833 -1.10388 -.72265 1908.966 1582.322)"/><rect x="910" y="1115" width="8" height="11" fill="#410b1b" rx="0" transform="matrix(.9142 .20906 -.48244 .98354 438.366 -268.695)"/><rect x="433" y="272" width="7" height="7" fill="#410b1b" rx="0" transform="matrix(.98432 .6846 -.40515 .73415 208.412 -187.398)"/><rect x="1639" y="298" width="10" height="10" fill="#410b1b" rx="0" transform="matrix(.80184 .68293 -.6044 .73236 529.312 -955.49)"/><rect x="163" y="557" width="11" height="20" fill="#410b1b" rx="0" transform="matrix(.95854 .13951 -.34742 .99269 125.945 -31.144)"/><rect x="1958" y="1307" width="12" height="24" fill="#1b1c1e" rx="0" transform="matrix(.0313 .96651 -1.04666 -.37101 3542.398 436.381)"/><rect x="1344" y="1292" width="10" height="13" fill="#1b1c1e" rx="0" transform="matrix(-.79027 .3148 -.74441 -.96886 3799.888 2394.114)"/><rect x="1203" y="313" width="10" height="22" fill="#553c01" rx="0" transform="matrix(-.2884 .887 -.9401 -.57602 1822.212 -144.912)"/><rect x="181" y="211" width="9" height="18" fill="#553c01" rx="0" transform="matrix(-.98585 .03516 -.2092 -1.0069 427.123 457.771)"/><rect x="1664" y="1374" width="8" height="22" fill="#410b1b" rx="0" transform="matrix(.41892 1.0042 -.8991 .23184 2151.605 -195.22)"/><rect x="202" y="1174" width="11" height="29" fill="#410b1b" rx="0" transform="matrix(.05614 .9582 -1.02538 .31134 1251.066 594.171)"/><rect x="1545" y="1200" width="13" height="21" fill="#553c01" rx="0" transform="matrix(-1.05999 -.25586 -.34302 -1.0262 4046.303 3383.915)"/><rect x="709" y="1345" width="7" height="12" fill="#410b1b" rx="0" transform="matrix(.28257 1.00122 -.99385 .01748 2148.959 651.36)"/><rect x="312" y="1025" width="13" height="26" fill="#1b1c1e" rx="0" transform="matrix(-.59404 .70883 -.81672 -.70883 1448.225 1570.277)"/><rect x="962" y="109" width="10" height="29" fill="#1b1c1e" rx="0" transform="matrix(.96638 .29242 -.2589 .95645 70.07 -294.267)"/><rect x="449" y="1155" width="11" height="26" fill="#553c01" rx="0" transform="matrix(-.98037 .1392 -.20852 -.99042 1245.121 2253.612)"/><rect x="1207" y="715" width="12" height="13" fill="#410b1b" rx="0" transform="matrix(.01752 .99452 -1.00367 .10453 1852.772 -560.272)"/><rect x="1905" y="28" width="10" height="10" fill="#553c01" rx="0" transform="matrix(.09172 1.05504 -.95424 -.07378 1656.92 -1322.034)"/><rect x="149" y="1180" width="13" height="18" fill="#410b1b" rx="0" transform="matrix(.80537 .75045 -.60738 .6757 815.892 290.744)"/><rect x="22" y="273" width="7" height="7" fill="#410b1b" rx="0" transform="matrix(.65834 .89099 -.75742 .49388 223.053 122.178)"/><rect x="1126" y="655" width="11" height="25" fill="#410b1b" rx="0" transform="matrix(-.97869 .08749 -.24357 -1 2455.072 1335)"/><rect x="1514" y="681" width="9" height="21" fill="#410b1b" rx="0" transform="matrix(.43837 1 -.8988 .23087 1474.35 -636.072)"/><rect x="96" y="1114" width="12" height="29" fill="#553c01" rx="0" transform="matrix(1.09654 .30132 .2679 .98558 62.765 10.969)"/><rect x="874" y="554" width="10" height="25" fill="#553c01" rx="0" transform="matrix(.2302 .98938 -1.08553 -.32147 1510.931 130.994)"/><rect x="1199" y="443" width="12" height="17" fill="#553c01" rx="0" transform="matrix(-.3168 .8268 -.97075 -.62304 2079.177 59.38)"/><rect x="400" y="1325" width="13" height="26" fill="#410b1b" rx="0" transform="matrix(.1763 .99034 -1.04723 -.2105 2059.79 1281.463)"/><rect x="1062" y="563" width="11" height="29" fill="#410b1b" rx="0" transform="matrix(-.91962 .19093 -.5066 -.98223 2518.044 978.2)"/><rect x="211" y="232" width="12" height="15" fill="#410b1b" rx="0" transform="matrix(-.79966 .64289 -.60248 -.76616 517.81 287.277)"/><rect x="399" y="561" width="13" height="16" fill="#410b1b" rx="0" transform="matrix(-.559 .57267 -.88542 -.88183 1222.023 970.3)"/><rect x="682" y="982" width="8" height="11" fill="#1b1c1e" rx="0" transform="matrix(.92881 .68165 -.43547 .75705 596.666 -94.361)"/><rect x="1479" y="325" width="7" height="12" fill="#410b1b" rx="0" transform="matrix(-.88295 .24933 -.46947 -1 2946.865 662)"/><rect x="493" y="580" width="11" height="28" fill="#1b1c1e" rx="0" transform="matrix(.98866 .39169 -.22392 .92275 278.07 -184.229)"/><rect x="987" y="971" width="9" height="23" fill="#410b1b" rx="0" transform="matrix(.98413 -.05314 .03874 1.01404 105.599 -135.926)"/><rect x="1492" y="42" width="9" height="13" fill="#553c01" rx="0" transform="matrix(-.04189 .98169 -1.00898 -.22664 1566.772 -1593.35)"/><rect x="1072" y="979" width="12" height="31" fill="#410b1b" rx="0" transform="matrix(-.75547 .69508 -.65637 -.71978 2454.853 998.666)"/><rect x="1317" y="366" width="11" height="11" fill="#410b1b" rx="0" transform="matrix(.62805 .9204 -.80685 .4098 857.202 -835.592)"/><rect x="1089" y="1264" width="8" height="21" fill="#410b1b" rx="0" transform="matrix(1.02874 .48957 -.18669 .88322 484.114 -232.651)"/><rect x="417" y="1119" width="12" height="27" fill="#553c01" rx="0" transform="matrix(.31306 1.01732 -.96657 .05332 1470.155 724.016)"/><rect x="652" y="1285" width="10" height="22" fill="#553c01" rx="0" transform="matrix(-.96197 .05394 -.1842 -1.0292 1374.306 2758.216)"/><rect x="700" y="269" width="8" height="14" fill="#553c01" rx="0" transform="matrix(-.96615 .15682 -.27684 -.9901 1477.623 488.097)"/><rect x="1933" y="999" width="8" height="18" fill="#410b1b" rx="0" transform="matrix(.10639 .96493 -1.00583 .27669 2671.445 -1309.446)"/><rect x="1708" y="175" width="12" height="33" fill="#410b1b" rx="0" transform="matrix(.91654 .24374 -.42673 .97758 226.1 -623.928)"/><rect x="107" y="261" width="12" height="12" fill="#410b1b" rx="0" transform="matrix(-.76132 .60513 -.64223 -.80303 410.912 401.154)"/><rect x="1421" y="540" width="7" height="14" fill="#410b1b" rx="0" transform="matrix(-.58818 .95481 -.8448 -.32877 2675.73 -833.492)"/><rect x="1709" y="1292" width="7" height="11" fill="#553c01" rx="0" transform="matrix(.9557 .10614 -.32856 1.00986 450 -496.525)"/><rect x="123" y="561" width="11" height="17" fill="#553c01" rx="0" transform="matrix(-.63384 .71018 -.75174 -.73541 575.338 924.372)"/><rect x="1475" y="1356" width="12" height="28" fill="#553c01" rx="0" transform="matrix(-.32043 .65114 -1.12564 -.83342 4145.008 2057.397)"/><rect x="1054" y="334" width="8" height="23" fill="#410b1b" rx="0" transform="matrix(.44185 .97542 -.9068 .26136 929.723 -628.101)"/><rect x="372" y="618" width="12" height="20" fill="#410b1b" rx="0" transform="matrix(.86062 .60264 -.51728 .79973 411.488 -82.22)"/><rect x="1121" y="26" width="9" height="13" fill="#1b1c1e" rx="0" transform="matrix(1.08974 .2646 .28769 .9875 -16.786 -58.17)"/><rect x="1636" y="62" width="10" height="22" fill="#553c01" rx="0" transform="matrix(-.9608 -.0365 -.11195 -1.04505 3145.07 710.88)"/><rect x="544" y="1210" width="12" height="19" fill="#410b1b" rx="0" transform="matrix(.94552 .42495 -.32557 .9113 426.995 -67.743)"/><rect x="1351" y="445" width="7" height="10" fill="#553c01" rx="0" transform="matrix(.58814 .82904 -.80951 .5592 937.853 -924.568)"/><rect x="1250" y="884" width="7" height="20" fill="#410b1b" rx="0" transform="matrix(.84251 .75517 -.59182 .65646 925.824 -595.706)"/><rect x="526" y="975" width="11" height="26" fill="#553c01" rx="0" transform="matrix(-.2393 .89441 -.99612 -.45572 1948.772 916.377)"/><rect x="1420" y="421" width="10" height="19" fill="#410b1b" rx="0" transform="matrix(1.08093 .60932 -.20674 .8086 186.895 -560.177)"/><rect x="1961" y="1313" width="7" height="17" fill="#553c01" rx="0" transform="matrix(.93506 .29398 -.3431 .96157 338.973 -320.269)"/><rect x="339" y="434" width="11" height="11" fill="#1b1c1e" rx="0" transform="matrix(-.29457 .91355 -.96349 -.40674 923.395 303.544)"/><rect x="1281" y="274" width="10" height="26" fill="#410b1b" rx="0" transform="matrix(-1.08116 -.25167 -.36287 -1.0094 2993.589 1269.101)"/><rect x="1834" y="68" width="10" height="18" fill="#410b1b" rx="0" transform="matrix(.70387 .83756 -.68256 .60852 547.294 -1017.363)"/><rect x="482" y="201" width="12" height="14" fill="#553c01" rx="0" transform="matrix(.18327 1.00367 -.99955 -.01752 653.871 -320.84)"/><rect x="1409" y="780" width="13" height="20" fill="#410b1b" rx="0" transform="matrix(-.80557 .4518 -.56175 -.9263 2899.572 1235.198)"/><rect x="1858" y="1264" width="7" height="13" fill="#410b1b" rx="0" transform="matrix(-.342 .93372 -.9397 -.35842 3735.255 -44.741)"/><rect x="472" y="952" width="10" height="21" fill="#1b1c1e" rx="0" transform="matrix(1.02467 .46976 -.20164 .88349 444.68 -95.272)"/><rect x="1837" y="412" width="12" height="23" fill="#410b1b" rx="0" transform="matrix(-.40267 .70948 -.97767 -.76083 3149.936 -33.394)"/><rect x="362" y="1300" width="7" height="14" fill="#553c01" rx="0" transform="matrix(-.05557 .95557 -1.02405 -.38607 1846.559 1553.469)"/><rect x="820" y="879" width="10" height="24" fill="#410b1b" rx="0" transform="matrix(.03496 1.00015 -.99985 0 1732.96 51.474)"/><rect x="1022" y="1178" width="9" height="16" fill="#410b1b" rx="0" transform="matrix(.90751 .82308 -.53108 .62024 953.187 -138.564)"/><rect x="861" y="1011" width="10" height="25" fill="#553c01" rx="0" transform="matrix(-.97052 .44079 -.27882 -.90374 1926.637 1475.742)"/><rect x="1603" y="611" width="12" height="16" fill="#553c01" rx="0" transform="matrix(-.9152 .2598 -.43346 -.96962 3477.995 660.392)"/><rect x="1180" y="885" width="10" height="25" fill="#410b1b" rx="0" transform="matrix(.35326 1.02568 -.9873 -.03582 1837.969 -12.204)"/><rect x="1840" y="384" width="8" height="23" fill="#553c01" rx="0" transform="matrix(.65606 .91828 -.75471 .46789 932.715 -1023.104)"/><rect x="232" y="581" width="11" height="16" fill="#410b1b" rx="0" transform="matrix(-.9376 .32636 -.34106 -.94783 629.326 1086.367)"/><rect x="672" y="288" width="9" height="15" fill="#410b1b" rx="0" transform="matrix(-.87922 .27989 -.50663 -.9761 1450.006 513.875)"/><rect x="1559" y="439" width="8" height="14" fill="#553c01" rx="0" transform="matrix(-.51788 .79864 -.86189 -.60182 2803.718 -533.858)"/><rect x="865" y="914" width="8" height="12" fill="#410b1b" rx="0" transform="matrix(.81405 .82916 -.65695 .55928 1059.982 -330.248)"/><rect x="168" y="1057" width="7" height="16" fill="#1b1c1e" rx="0" transform="matrix(.91955 .57921 -.41322 .8272 792.089 60.592)"/><rect x="1101" y="1353" width="8" height="19" fill="#553c01" rx="0" transform="matrix(-.01913 .97284 -1.02095 -.35409 2633.167 1066.035)"/><rect x="1727" y="1171" width="12" height="19" fill="#410b1b" rx="0" transform="matrix(.46583 .76038 -.9102 .66099 1881.383 -1130.313)"/><rect x="43" y="667" width="9" height="18" fill="#553c01" rx="0" transform="matrix(1.1099 .61308 -.15823 .81358 337.69 106.13)"/><rect x="425" y="769" width="12" height="19" fill="#553c01" rx="0" transform="matrix(.31186 .98904 -.96168 .15665 1129.454 252.859)"/><rect x="698" y="1359" width="9" height="19" fill="#410b1b" rx="0" transform="matrix(-.97149 .1046 -.31787 -.99513 2155.063 2632.325)"/><rect x="324" y="205" width="8" height="23" fill="#410b1b" rx="0" transform="matrix(-.89892 .18258 -.37888 -1.03549 676.608 487.37)"/><rect x="1143" y="227" width="11" height="22" fill="#410b1b" rx="0" transform="matrix(.7768 .5886 -.62979 .81013 374.885 -570.618)"/><rect x="77" y="167" width="8" height="10" fill="#410b1b" rx="0" transform="matrix(.81697 .69466 -.59356 .71934 141.091 -7.994)"/><rect x="1645" y="514" width="10" height="12" fill="#410b1b" rx="0" transform="matrix(-.94354 .34286 -.32432 -.94199 3319.903 559.501)"/><rect x="1637" y="358" width="7" height="15" fill="#553c01" rx="0" transform="matrix(.9562 .42423 -.30662 .90977 231.109 -806.5)"/><rect x="282" y="178" width="9" height="17" fill="#410b1b" rx="0" transform="matrix(.04935 1.01231 -.98698 .01767 427.961 -61.445)"/><rect x="129" y="886" width="8" height="17" fill="#410b1b" rx="0" transform="matrix(.06426 .95419 -1.0714 -.3473 1311.69 1101.701)"/><rect x="814" y="505" width="7" height="19" fill="#553c01" rx="0" transform="matrix(1.00781 .85084 -.49553 .5739 477.059 -287.603)"/><rect x="713" y="736" width="10" height="29" fill="#410b1b" rx="0" transform="matrix(.95365 .44513 -.29124 .91266 454.575 -380.66)"/><rect x="1209" y="1003" width="12" height="17" fill="#553c01" rx="0" transform="matrix(-.65127 .67945 -.74846 -.7546 2699.126 1163.489)"/><rect x="1274" y="388" width="12" height="24" fill="#553c01" rx="0" transform="matrix(.24456 .99635 -.98227 .08717 1419.233 -887.849)"/><rect x="591" y="79" width="7" height="18" fill="#553c01" rx="0" transform="matrix(.89 .31134 -.47284 .9582 106.223 -254.407)"/><rect x="691" y="799" width="10" height="10" fill="#410b1b" rx="0" transform="matrix(-1.03134 -.12678 -.51197 -1.03255 2170.995 1921.98)"/><rect x="209" y="1038" width="10" height="12" fill="#553c01" rx="0" transform="matrix(-.5351 .76651 -.85561 -.64318 1332.284 1558.919)"/><rect x="339" y="1084" width="12" height="25" fill="#410b1b" rx="0" transform="matrix(.9871 -.12278 .1051 1 0 0)"/><rect x="747" y="841" width="9" height="14" fill="#410b1b" rx="0" transform="matrix(-.76293 .87039 -.6905 -.52298 1822.53 504.882)"/><rect x="460" y="1388" width="10" height="29" fill="#553c01" rx="0" transform="matrix(.28462 .99708 -.95274 .17581 2024.932 618.63)"/><rect x="1504" y="604" width="11" height="14" fill="#410b1b" rx="0" transform="matrix(.80204 .54873 -.58736 .84497 517.285 -548.24)"/><rect x="1632" y="498" width="13" height="22" fill="#410b1b" rx="0" transform="matrix(.61928 .92065 -.82332 .3908 1166.99 -1169.79)"/><rect x="1257" y="798" width="13" height="24" fill="#1b1c1e" rx="0" transform="matrix(-.24349 .98526 -.95425 -.24565 2161.976 -13.112)"/><rect x="1180" y="538" width="10" height="27" fill="#553c01" rx="0" transform="matrix(-1.00082 -.05285 -.17538 -1.00844 2530.514 1336.825)"/><rect x="1621" y="684" width="8" height="10" fill="#410b1b" rx="0" transform="matrix(-.29518 .94149 -.94289 -.38039 2854.665 -865.362)"/><rect x="1970" y="557" width="12" height="25" fill="#410b1b" rx="0" transform="matrix(-.98163 0 -.15523 -1.01872 3970.801 1533.755)"/><rect x="1660" y="390" width="9" height="13" fill="#410b1b" rx="0" transform="matrix(.19281 .99954 -.99372 .0349 1797.383 -1252.025)"/><rect x="1660" y="255" width="12" height="34" fill="#553c01" rx="0" transform="matrix(-.94066 .01846 -.2866 -1.05746 3266.776 1102.528)"/><rect x="1061" y="1225" width="13" height="15" fill="#1b1c1e" rx="0" transform="matrix(-.77843 .85638 -.68129 -.53513 2566.71 827.829)"/><rect x="178" y="180" width="12" height="30" fill="#410b1b" rx="0" transform="matrix(.96413 .08824 -.31245 1.00861 55.931 -47.059)"/></svg>